/* XPM */
static char * p+e_xpm[] = {
"40 40 699 2",
"  	c #416411",
". 	c #456E15",
"+ 	c #446A13",
"@ 	c #426813",
"# 	c #426613",
"$ 	c #487014",
"% 	c #426812",
"& 	c #456F15",
"* 	c #497316",
"= 	c #456914",
"- 	c #466814",
"; 	c #3E5C10",
"> 	c #486D14",
", 	c #487114",
"' 	c #456913",
") 	c #456D14",
"! 	c #426212",
"~ 	c #446C14",
"{ 	c #476D14",
"] 	c #436713",
"^ 	c #486812",
"/ 	c #425D10",
"( 	c #406212",
"_ 	c #426714",
": 	c #447015",
"< 	c #446C15",
"[ 	c #416A13",
"} 	c #4A7917",
"| 	c #416513",
"1 	c #436913",
"2 	c #436912",
"3 	c #487216",
"4 	c #446713",
"5 	c #456312",
"6 	c #426111",
"7 	c #426E15",
"8 	c #456713",
"9 	c #456C14",
"0 	c #416914",
"a 	c #507129",
"b 	c #D0D4CE",
"c 	c #C3C3C3",
"d 	c #9A9B99",
"e 	c #949693",
"f 	c #D3D4D2",
"g 	c #607B4B",
"h 	c #4B6C20",
"i 	c #456B14",
"j 	c #406814",
"k 	c #456F16",
"l 	c #436613",
"m 	c #B8B8B6",
"n 	c #C9C7BF",
"o 	c #E2E1D9",
"p 	c #CECDC6",
"q 	c #969590",
"r 	c #C1C7BE",
"s 	c #718161",
"t 	c #486713",
"u 	c #436E15",
"v 	c #A9A8A2",
"w 	c #BEBBAD",
"x 	c #E3E1D4",
"y 	c #D2D0C6",
"z 	c #CAC9C2",
"A 	c #B5B9B2",
"B 	c #708560",
"C 	c #466813",
"D 	c #D0D0D0",
"E 	c #9A9A9A",
"F 	c #828282",
"G 	c #7F7F7F",
"H 	c #808080",
"I 	c #818181",
"J 	c #727C6D",
"K 	c #727B6E",
"L 	c #C3C3BA",
"M 	c #DDDACB",
"N 	c #E8E6D6",
"O 	c #F7F5E8",
"P 	c #EEECE2",
"Q 	c #C2C2C0",
"R 	c #747D6E",
"S 	c #737970",
"T 	c #767A73",
"U 	c #7E7E7E",
"V 	c #969696",
"W 	c #CCCCCC",
"X 	c #A6A6A6",
"Y 	c #575757",
"Z 	c #686868",
"` 	c #7B7B7B",
" .	c #727B6C",
"..	c #727A6E",
"+.	c #DBDCD5",
"@.	c #D2CCBD",
"#.	c #D5CBBA",
"$.	c #F3EEDF",
"%.	c #EAE8DD",
"&.	c #BABFB6",
"*.	c #7C8179",
"=.	c #7A7D77",
"-.	c #7A7A7A",
";.	c #676767",
">.	c #535353",
",.	c #A2A2A2",
"'.	c #F6F6F6",
").	c #ECECEC",
"!.	c #F5F5F5",
"~.	c #E8EBE6",
"{.	c #D3CBBC",
"].	c #D2C2B1",
"^.	c #EDE4D6",
"/.	c #EAE8DE",
"(.	c #F0F0F0",
"_.	c #EEEEEE",
":.	c #F7F7F7",
"<.	c #525252",
"[.	c #C5C5C5",
"}.	c #6A6A6A",
"|.	c #C9C9C9",
"1.	c #939393",
"2.	c #8B8B8B",
"3.	c #898989",
"4.	c #888888",
"5.	c #777D73",
"6.	c #D7DAD1",
"7.	c #DCD5C6",
"8.	c #D2C9B5",
"9.	c #E4DECF",
"0.	c #EDEAE0",
"a.	c #7C8478",
"b.	c #6E7965",
"c.	c #727A6B",
"d.	c #717A6C",
"e.	c #878787",
"f.	c #8F8F8F",
"g.	c #CACACA",
"h.	c #777777",
"i.	c #919191",
"j.	c #7C7C7C",
"k.	c #5B5B5B",
"l.	c #7D7D7D",
"m.	c #7D8678",
"n.	c #C8CAC2",
"o.	c #ECE7E1",
"p.	c #DAD4C8",
"q.	c #D4D1BF",
"r.	c #EAE9D8",
"s.	c #F5F2E8",
"t.	c #C7CAC0",
"u.	c #D0D0C7",
"v.	c #778071",
"w.	c #626262",
"x.	c #707070",
"y.	c #F1F1F2",
"z.	c #999999",
"A.	c #959595",
"B.	c #6D6D6D",
"C.	c #DFC3BF",
"D.	c #C78482",
"E.	c #BE7B76",
"F.	c #EADDCE",
"G.	c #B2B0A5",
"H.	c #B8B3AB",
"I.	c #FCF6EA",
"J.	c #DDA89E",
"K.	c #CC6E6B",
"L.	c #E0B9B6",
"M.	c #738465",
"N.	c #9D9E9B",
"O.	c #F4F4F5",
"P.	c #A09FA3",
"Q.	c #656467",
"R.	c #BCBCBC",
"S.	c #AB5651",
"T.	c #DB8581",
"U.	c #CC6F6D",
"V.	c #C39490",
"W.	c #C7C0B7",
"X.	c #D3D2CA",
"Y.	c #E5C5BC",
"Z.	c #D77E7D",
"`.	c #E6A8A3",
" +	c #C35957",
".+	c #D0CAC7",
"++	c #B9B9B9",
"@+	c #9E9E9B",
"#+	c #F4F4F6",
"$+	c #DBDBDB",
"%+	c #474747",
"&+	c #D4D4D4",
"*+	c #AD6764",
"=+	c #BD5654",
"-+	c #CE645E",
";+	c #B94C49",
">+	c #C89F99",
",+	c #DFC2B9",
"'+	c #C5625F",
")+	c #D87C7B",
"!+	c #DB9994",
"~+	c #C04F4B",
"{+	c #B7B4AA",
"]+	c #DCDCDC",
"^+	c #D9D9D9",
"/+	c #929292",
"(+	c #D8D8D8",
"_+	c #4B4B4B",
":+	c #D3D3D3",
"<+	c #A56461",
"[+	c #B14542",
"}+	c #B44540",
"|+	c #B2403B",
"1+	c #B13E3E",
"2+	c #B54540",
"3+	c #BD3A35",
"4+	c #B93C35",
"5+	c #BB4E47",
"6+	c #D17D77",
"7+	c #BBBAAF",
"8+	c #DADADA",
"9+	c #494949",
"0+	c #D7D7D7",
"a+	c #6E6E6E",
"b+	c #B0B0B0",
"c+	c #B1B1B1",
"d+	c #A0A0A0",
"e+	c #4D4D4D",
"f+	c #989898",
"g+	c #B3B3B3",
"h+	c #B5B5B5",
"i+	c #B4B4B4",
"j+	c #985F59",
"k+	c #9B413C",
"l+	c #A3413C",
"m+	c #A53A35",
"n+	c #A7332E",
"o+	c #A5352E",
"p+	c #A5332C",
"q+	c #A9332C",
"r+	c #AF4A44",
"s+	c #B76762",
"t+	c #D5CFC9",
"u+	c #AEAEAE",
"v+	c #B2B2B2",
"w+	c #9B9B9B",
"x+	c #D2D2D2",
"y+	c #ADADAD",
"z+	c #606060",
"A+	c #5A5A5A",
"B+	c #5E5E5E",
"C+	c #616161",
"D+	c #A87974",
"E+	c #85342E",
"F+	c #852C27",
"G+	c #882823",
"H+	c #8D2722",
"I+	c #8E2723",
"J+	c #912926",
"K+	c #952C29",
"L+	c #9B3331",
"M+	c #A34D48",
"N+	c #ADB0A1",
"O+	c #646464",
"P+	c #4F4F4F",
"Q+	c #595959",
"R+	c #A7A7A7",
"S+	c #6F6F6F",
"T+	c #949494",
"U+	c #E5E5E5",
"V+	c #CBCBCB",
"W+	c #BFBFBF",
"X+	c #E6E6E6",
"Y+	c #E7E7E7",
"Z+	c #E4E4E4",
"`+	c #B59591",
" @	c #81322E",
".@	c #863330",
"+@	c #832D2A",
"@@	c #862C26",
"#@	c #8C322C",
"$@	c #913630",
"%@	c #983A35",
"&@	c #A3413F",
"*@	c #AE6D6A",
"=@	c #D2D4CD",
"-@	c #E2E2E2",
";@	c #C6C6C6",
">@	c #C2C2C2",
",@	c #DFDFDF",
"'@	c #E3E3E3",
")@	c #959596",
"!@	c #D2D2D3",
"~@	c #CFBCBA",
"{@	c #813B37",
"]@	c #823532",
"^@	c #883835",
"/@	c #8F3C36",
"(@	c #913D38",
"_@	c #933F3A",
":@	c #963F39",
"<@	c #993D37",
"[@	c #BF9998",
"}@	c #D9DBD4",
"|@	c #454545",
"1@	c #D6D6D6",
"2@	c #6D6D6E",
"3@	c #DEDEE0",
"4@	c #48484A",
"5@	c #D2D2D4",
"6@	c #E8DADB",
"7@	c #9B5858",
"8@	c #813533",
"9@	c #853632",
"0@	c #913732",
"a@	c #993734",
"b@	c #AC534D",
"c@	c #A74741",
"d@	c #A65450",
"e@	c #DFC9C6",
"f@	c #517133",
"g@	c #464646",
"h@	c #929294",
"i@	c #D8D8D9",
"j@	c #48484B",
"k@	c #D1D1D2",
"l@	c #ABADA1",
"m@	c #905E5B",
"n@	c #926663",
"o@	c #AD8886",
"p@	c #AF8482",
"q@	c #B88485",
"r@	c #C79B99",
"s@	c #D8B9B9",
"t@	c #DEC4C6",
"u@	c #BEBEB3",
"v@	c #527033",
"w@	c #6C6C6D",
"x@	c #BEBEC0",
"y@	c #8B8B8C",
"z@	c #8A8A8C",
"A@	c #7B7B7D",
"B@	c #4A4A4C",
"C@	c #7A7A7B",
"D@	c #8B8B8D",
"E@	c #8E8E90",
"F@	c #A2AB99",
"G@	c #E3DADB",
"H@	c #E1DBDE",
"I@	c #E5E5E8",
"J@	c #EBEDEA",
"K@	c #F1F2EF",
"L@	c #F6F9F6",
"M@	c #E1E6E2",
"N@	c #C7CCC6",
"O@	c #637B4E",
"P@	c #476913",
"Q@	c #8D8D8D",
"R@	c #797979",
"S@	c #4C4C4C",
"T@	c #8C8C8C",
"U@	c #868686",
"V@	c #B8B8B8",
"W@	c #949496",
"X@	c #C4C4C6",
"Y@	c #8C8C8E",
"Z@	c #8A8A8B",
"`@	c #7E7E80",
" #	c #4D4D4F",
".#	c #79797A",
"+#	c #7B8E6E",
"@#	c #B3BAB0",
"##	c #E0E0DE",
"$#	c #E5E5E1",
"%#	c #E7E6E4",
"&#	c #EAEBE8",
"*#	c #F2F1EF",
"=#	c #E1E1DB",
"-#	c #C2C7BD",
";#	c #517339",
">#	c #446B13",
",#	c #8A8A8A",
"'#	c #4E4E4E",
")#	c #BDBDBD",
"!#	c #CFCFD0",
"~#	c #778F66",
"{#	c #CED0CC",
"]#	c #DEDEDD",
"^#	c #EBEBEB",
"/#	c #E6E7E5",
"(#	c #CED2CC",
"_#	c #BDC3B9",
":#	c #57793B",
"<#	c #467115",
"[#	c #929293",
"}#	c #DDDDDE",
"|#	c #454548",
"1#	c #D3D3D4",
"2#	c #697F56",
"3#	c #BDC2B9",
"4#	c #E1E1E1",
"5#	c #E2E3E1",
"6#	c #CCD0C9",
"7#	c #AEB6A8",
"8#	c #597A3D",
"9#	c #444444",
"0#	c #DEDEDF",
"a#	c #474749",
"b#	c #D1D1D3",
"c#	c #627F4B",
"d#	c #DFDFDE",
"e#	c #E7E6E8",
"f#	c #ECEBEC",
"g#	c #E2E1E2",
"h#	c #EAE9EB",
"i#	c #E5E6E5",
"j#	c #CDD0CC",
"k#	c #5B6F44",
"l#	c #476C15",
"m#	c #919193",
"n#	c #E5E5E7",
"o#	c #E4E4E6",
"p#	c #C7C7C9",
"q#	c #49494B",
"r#	c #C1C1C2",
"s#	c #E6E6E7",
"t#	c #E7E7E8",
"u#	c #658251",
"v#	c #D2D5D1",
"w#	c #DFDFDA",
"x#	c #E7E6E7",
"y#	c #EAE7E6",
"z#	c #E2DFDE",
"A#	c #E3E4E3",
"B#	c #A6AF9F",
"C#	c #5C7844",
"D#	c #487015",
"E#	c #484848",
"F#	c #E1E2E1",
"G#	c #979799",
"H#	c #ACACAE",
"I#	c #616163",
"J#	c #626264",
"K#	c #5C5C5E",
"L#	c #4C4C4E",
"M#	c #606062",
"N#	c #636365",
"O#	c #5C7945",
"P#	c #CED0C9",
"Q#	c #D5D2C8",
"R#	c #DDDAD0",
"S#	c #D9D5CA",
"T#	c #D2CEC3",
"U#	c #DDD9CF",
"V#	c #E2E3DA",
"W#	c #D0D4CA",
"X#	c #5A7343",
"Y#	c #477416",
"Z#	c #5C5C5C",
"`#	c #515151",
" $	c #656565",
".$	c #6E6E6F",
"+$	c #D6D6D8",
"@$	c #B4B4B5",
"#$	c #B2B2B3",
"$$	c #9C9C9E",
"%$	c #98989A",
"&$	c #B2B2B4",
"*$	c #B3B3B4",
"=$	c #5F7E48",
"-$	c #BBC1B5",
";$	c #D6D4C4",
">$	c #E5DECE",
",$	c #E6E2D4",
"'$	c #D7D3C5",
")$	c #E5E0D2",
"!$	c #EAE9DE",
"~$	c #DADED5",
"{$	c #5A6F43",
"]$	c #436312",
"^$	c #9C9C9C",
"/$	c #D3D3D5",
"($	c #697E54",
"_$	c #E7E7E2",
":$	c #D8D8CA",
"<$	c #E3E2D6",
"[$	c #E9E6DA",
"}$	c #DBD8CC",
"|$	c #E7E4D7",
"1$	c #ECECE2",
"2$	c #DCDED8",
"3$	c #5D7746",
"4$	c #445D11",
"5$	c #6F6F70",
"6$	c #939395",
"7$	c #DBDBDC",
"8$	c #D4D4D5",
"9$	c #627950",
"0$	c #E8E2DE",
"a$	c #D8C2B7",
"b$	c #E0CBC0",
"c$	c #E0C9BE",
"d$	c #D6C1B5",
"e$	c #E7D7C9",
"f$	c #E4D2C7",
"g$	c #D0D1CA",
"h$	c #637B51",
"i$	c #436814",
"j$	c #9D9D9A",
"k$	c #676768",
"l$	c #F5F4F6",
"m$	c #9F9EA3",
"n$	c #6C6C6C",
"o$	c #DBDBDD",
"p$	c #617C4A",
"q$	c #CECDC4",
"r$	c #A2776F",
"s$	c #A9564D",
"t$	c #AA4E4C",
"u$	c #9A4642",
"v$	c #AA5853",
"w$	c #C38F8F",
"x$	c #D5D3CC",
"y$	c #657D53",
"z$	c #446312",
"A$	c #DDDDDD",
"B$	c #9C9C99",
"C$	c #9F9EA2",
"D$	c #D0D0D1",
"E$	c #4B4B4D",
"F$	c #B0B0B2",
"G$	c #CECED0",
"H$	c #CFCFD1",
"I$	c #5B7645",
"J$	c #E9EBE5",
"K$	c #B79391",
"L$	c #A6504E",
"M$	c #A7494A",
"N$	c #96403D",
"O$	c #A95250",
"P$	c #D1AEAE",
"Q$	c #7C936C",
"R$	c #466C15",
"S$	c #426814",
"T$	c #D1D1D1",
"U$	c #CDCDCD",
"V$	c #ABABAD",
"W$	c #4F4F51",
"X$	c #525254",
"Y$	c #535355",
"Z$	c #4E4E50",
"`$	c #545456",
" %	c #505052",
".%	c #57763E",
"+%	c #C6CCC2",
"@%	c #C1A6A5",
"#%	c #A95353",
"$%	c #AA4E50",
"%%	c #974342",
"&%	c #AC5757",
"*%	c #DAC0BE",
"=%	c #768D67",
"-%	c #466713",
";%	c #505050",
">%	c #585858",
",%	c #A1A1A1",
"'%	c #838383",
")%	c #636364",
"!%	c #9A9A9B",
"~%	c #DADADB",
"{%	c #D9D9DA",
"]%	c #DCDCDD",
"^%	c #507034",
"/%	c #D3D7D1",
"(%	c #C6B0AF",
"_%	c #A24D51",
":%	c #A14E50",
"<%	c #8F4442",
"[%	c #A35857",
"}%	c #DDC8C7",
"|%	c #718A62",
"1%	c #477116",
"2%	c #A3A3A2",
"3%	c #616160",
"4%	c #8C8C8D",
"5%	c #6B6B6C",
"6%	c #CECECE",
"7%	c #517531",
"8%	c #DADDD9",
"9%	c #8B8079",
"0%	c #74393B",
"a%	c #793A3E",
"b%	c #632C2D",
"c%	c #774041",
"d%	c #AEA4A6",
"e%	c #6E855D",
"f%	c #487415",
"g%	c #497617",
"h%	c #D5D5D5",
"i%	c #BBBBBB",
"j%	c #486423",
"k%	c #C0C4BD",
"l%	c #3A3E37",
"m%	c #271B1B",
"n%	c #312628",
"o%	c #322E2E",
"p%	c #352E2F",
"q%	c #6C6B6A",
"r%	c #698257",
"s%	c #436B14",
"t%	c #476E13",
"u%	c #C7C7C7",
"v%	c #446919",
"w%	c #B8BEB5",
"x%	c #484E48",
"y%	c #1D1B1C",
"z%	c #1F1D1F",
"A%	c #202222",
"B%	c #202021",
"C%	c #878786",
"D%	c #637A51",
"E%	c #406413",
"F%	c #476B14",
"G%	c #466913",
"H%	c #CBCEC8",
"I%	c #4D504B",
"J%	c #222222",
"K%	c #232325",
"L%	c #5F794A",
"M%	c #436513",
"N%	c #487416",
"O%	c #446B14",
"P%	c #C1C6BD",
"Q%	c #4E524B",
"R%	c #232323",
"S%	c #242426",
"T%	c #5D8142",
"U%	c #4A7416",
"V%	c #497315",
"W%	c #487215",
"X%	c #497515",
"Y%	c #487516",
"Z%	c #406713",
"`%	c #476813",
" &	c #426412",
".&	c #3F5E11",
"+&	c #466412",
"@&	c #486E15",
"#&	c #456B15",
"$&	c #406011",
"%&	c #9EA897",
"&&	c #7E8779",
"*&	c #828681",
"=&	c #80827F",
"-&	c #7A7D79",
";&	c #737671",
">&	c #929491",
",&	c #547138",
"'&	c #436A14",
")&	c #4A7916",
"!&	c #416613",
"~&	c #446A14",
"{&	c #406714",
"]&	c #416813",
"^&	c #466A13",
"/&	c #446813",
"(&	c #446C13",
"_&	c #467116",
":&	c #436D14",
"<&	c #426914",
"[&	c #406412",
"}&	c #3E580F",
"|&	c #446E15",
"1&	c #426313",
"2&	c #476C14",
"3&	c #416C14",
"4&	c #497216",
"5&	c #446D15",
"6&	c #456813",
"7&	c #446F15",
"8&	c #496F14",
"9&	c #435F11",
"0&	c #456C13",
"a&	c #436813",
"b&	c #436C14",
"c&	c #436914",
"d&	c #466B13",
"e&	c #477215",
"f&	c #457015",
"g&	c #436712",
"h&	c #416C15",
"i&	c #456912",
"j&	c #426A14",
"k&	c #456613",
"l&	c #446A15",
"m&	c #406C14",
"n&	c #446811",
"o&	c #486F16",
"p&	c #416814",
"  . + @ # $ % & * = - ; > , ' ) ! ~ { > ] ^ / ( _ : < [ } | 1 2 3 < 4 5 6 7 8 9 ",
"@ @ @ @ @ @ @ @ @ @ @ @ @ @ 0 a b c d e f g h i j @ @ @ @ @ @ @ @ @ @ @ @ @ @ @ ",
"@ @ @ @ @ @ @ @ @ @ @ @ @ @ k l m n o p q r s t = @ @ @ @ @ @ @ @ @ @ @ @ @ @ @ ",
"@ @ @ @ @ @ @ @ @ @ @ @ @ @ u < v w x y z A B C + @ @ @ @ @ @ @ @ @ @ @ @ @ @ @ ",
"@ D E F G H I I I I I I I I J K L M N O P Q R S T I I I I I I I I H U V W @ @ @ ",
"X Y Z ` H I I I I I I I I I  ...+.@.#.$.%.&.*.=.T I I I I I I I I I -.;.>.,.@ @ ",
"Y '.).'.'.!.'.'.'.'.'.'.'.'.'.'.~.{.].^./.'.(._.'.'.'.'.'.'.'.'.'.:.'.'.'.<.[.@ ",
"}.'.|.1.2.2.3.4.4.4.4.4.4.4.5.5.6.7.8.9.0.a.b.c.d.e.4.4.4.4.4.4.4.e.f.g.'.h.3.@ ",
"i.'.j.k.H j.j.l.j.l.l.l.l.l.m.n.o.p.q.r.s.t.u.v. .l.U l.j.U U U U l.w.x.y.z.}.@ ",
"A.:.B.1.@ @ @ @ @ @ @ @ @ @ C.D.E.F.G.H.I.J.K.L.M.@ @ @ @ @ @ @ @ @ N.;.O.P.Q.@ ",
"A.:.B.1.@ @ @ @ @ R.@ @ @ @ S.T.U.V.W.X.Y.Z.`. +.+@ @ @ ++@ @ @ @ @ @+;.#+P.Q.@ ",
"A.:.B.1.@ @ @ @ $+%+&+@ @ @ *+=+-+;+>+,+'+)+!+~+{+@ @ ]+%+^+@ @ @ @ @+;.#+P.Q.@ ",
"A.:.B./+@ @ @ @ (+_+:+@ @ @ <+[+}+|+1+2+3+4+5+6+7+@ @ 8+9+0+@ @ @ @ @+;.#+P.Q.@ ",
"A.:.a+/+@ &+b+c+d+e+f+g+h+i+j+k+l+m+n+o+p+q+r+s+t+u+v+w+e+w+i+b+x+@ @+;.#+P.Q.@ ",
"A.:.a+A.@ y+w.z+A+e+k.B+C+B+D+E+F+G+H+I+J+K+L+M+N+O+B+k.P+Q+w.C+R+@ @+;.#+P.Q.@ ",
"A.:.S+T+@ @ U+U+V+e+W+X+Y+Z+`+ @.@+@@@#@$@%@&@*@=@-@Z+;@9+>@,@'@@ @ @+;.#+P.Q.@ ",
"A.:.a+)@@ @ @ @ '@_+!@@ @ @ ~@{@]@^@/@(@_@:@<@[@}@@ @ ^+|@1@@ @ @ @ @+;.#+P.Q.@ ",
"A.:.2@)@@ @ @ @ 3@4@5@@ @ @ 6@7@8@9@0@a@b@c@d@e@f@@ @ 8+g@1@@ @ @ @ @+;.#+P.Q.@ ",
"A.:.x.h@@ @ @ @ i@j@k@@ @ @ l@m@n@o@p@q@r@s@t@u@v@@ @ 0+g@:+@ @ @ @ @+;.#+P.Q.@ ",
"A.:.w@h@@ x@y@z@A@B@C@D@E@D@F@G@H@I@J@K@L@M@N@O@P@Q@e.R@S@j.T@U@V@@ @+;.#+P.Q.@ ",
"A.:.w@W@@ X@Y@Z@`@ #.#D@y@z@+#@###$#%#&#*#=#-#;#>#2.,#j.'#-.2.T@)#@ @+;.#+P.Q.@ ",
"A.:.w@h@@ @ @ @ i@4@!#@ @ @ ~#{#]#U+^#'@/#(#_#:#<#@ @ 1@9+x+@ @ @ @ @+;.#+P.Q.@ ",
"A.:.B.[#@ @ @ @ }#|#1#@ @ @ 2#3#,@X+^#4#5#6#7#8#1 @ @ ^+9#(+@ @ @ @ @+;.#+P.Q.@ ",
"A.:.2@h@@ @ @ @ 0#a#b#@ @ @ c#3#d#e#f#g#h#i#j#k#l#@ @ (+9+(+@ @ @ @ @+;.#+P.Q.@ ",
"A.:.w@m#@ @ n#o#p#q#r#s#t#s#u#v#w#x#y#z#y#A#B#C#D#Z+U+;@E#c U+F#@ @ @+;.#+P.Q.@ ",
"A.:.2@G#@ H#I#J#K#L#K#M#N#I#O#P#Q#R#S#T#U#V#W#X#Y#I#C+Z#`#k. $C+R+@ @+;.#+P.Q.@ ",
"A.:..$)@@ +$@$#$$$ #%$&$*$#$=$-$;$>$,$'$)$!$~${$]$v+v+^$'#f+c+i+0+@ @+;.#+P.Q.@ ",
"A.:.2@%$@ @ @ @ 0#j@/$@ @ @ ($_$:$<$[$}$|$1$2$3$4$@ @ ]+|@^+@ @ @ @ @+;.#+P.Q.@ ",
"T+:.5$6$@ @ @ @ 7$j@8$@ @ @ 9$0$a$b$c$d$e$f$g$h$i$@ @ 0+E#0+@ @ @ @ j$k$l$m$Q.@ ",
"T+:.n$6$@ @ @ @ o$4@/$@ @ @ p$q$r$s$t$u$v$w$x$y$z$@ @ A$|@8+@ @ @ @ B$Z !.C$Q.@ ",
"T+:..$[#@ o#k@D$#$E$F$G$H$!#I$J$K$L$M$N$O$P$Q$R$S$k@T$g+_+u+U$U$Z+@ B$Z !.C$Q.@ ",
"T+:.2@%$@ V$W$X$Y$Z$X$`$Y$ %.%+%@%#%$%%%&%*%=%-%- Y$>.>.`#;%>%P+,%@ B$Z !.C$Q.@ ",
"'%'.)%!%@ @ ~%{%~%{%}#7$]%]+^%/%(%_%:%<%[%}%|%1%: ]+^+8+$+8+8+$+@ @ 2%3%'.4%5%@ ",
"P+'.A+6%@ @ @ @ @ @ @ @ @ @ 7%8%9%0%a%b%c%d%e%f%g%@ @ @ @ @ @ @ @ @ h%Z#'.>.y+@ ",
";@i%h%@ @ @ @ @ @ @ @ @ @ @ j%k%l%m%n%o%p%q%r%s%t%@ @ @ @ @ @ @ @ @ @ T$V@u%@ @ ",
"@ @ @ @ @ @ @ @ @ @ @ @ @ @ v%w%x%y%z%A%B%C%D%E%F%@ @ @ @ @ @ @ @ @ @ @ @ @ @ @ ",
"@ @ @ @ @ @ @ @ @ @ @ @ @ @ G%H%I%J%K%K%K%e.L%M%N%@ @ @ @ @ @ @ @ @ @ @ @ @ @ @ ",
"@ @ @ @ @ @ @ @ @ @ @ @ @ @ O%P%Q%R%K%K%S%I T%U%V%@ @ @ @ @ @ @ @ @ @ @ @ @ @ @ ",
"W%X%D#Y%~ Z%4 `% &.&+&@&#&$&~ %&&&*&=&-&;&>&,&'&X%)&[ !&~&{&]&^&~&/&(&_&:&<&[&}&",
"1 |&1&2&3&7 . 4&5&6&[ 6&7&8&9&0&f%a&P@b&c&i d&e&f&2&g&h&i&j&k&l&m&n&(&o&Y%'&p&^&"};
