/* XPM */
static char * collectable_texture_xpm[] = {
"40 40 621 2",
"  	c #416411",
". 	c #456E15",
"+ 	c #446A13",
"@ 	c #426813",
"# 	c #426613",
"$ 	c #487014",
"% 	c #426812",
"& 	c #456F15",
"* 	c #497316",
"= 	c #456914",
"- 	c #466814",
"; 	c #3E5C10",
"> 	c #486D14",
", 	c #487114",
"' 	c #456913",
") 	c #456D14",
"! 	c #426212",
"~ 	c #446C14",
"{ 	c #476D14",
"] 	c #436713",
"^ 	c #486812",
"/ 	c #425D10",
"( 	c #406212",
"_ 	c #426714",
": 	c #447015",
"< 	c #446C15",
"[ 	c #416A13",
"} 	c #4A7917",
"| 	c #416513",
"1 	c #436913",
"2 	c #436912",
"3 	c #487216",
"4 	c #446713",
"5 	c #456312",
"6 	c #426111",
"7 	c #426E15",
"8 	c #456713",
"9 	c #456C14",
"0 	c #457015",
"a 	c #416413",
"b 	c #456512",
"c 	c #477115",
"d 	c #425F12",
"e 	c #3F6211",
"f 	c #436212",
"g 	c #416713",
"h 	c #446D14",
"i 	c #426A14",
"j 	c #476A14",
"k 	c #466E14",
"l 	c #416914",
"m 	c #466B14",
"n 	c #487016",
"o 	c #456111",
"p 	c #426913",
"q 	c #476A13",
"r 	c #456B14",
"s 	c #406814",
"t 	c #466E15",
"u 	c #486F15",
"v 	c #426B14",
"w 	c #497315",
"x 	c #466813",
"y 	c #476B14",
"z 	c #497016",
"A 	c #456F16",
"B 	c #496E13",
"C 	c #456412",
"D 	c #476B13",
"E 	c #405D10",
"F 	c #416712",
"G 	c #446914",
"H 	c #426313",
"I 	c #4A7415",
"J 	c #436C14",
"K 	c #497516",
"L 	c #426112",
"M 	c #436613",
"N 	c #477216",
"O 	c #487015",
"P 	c #486F14",
"Q 	c #467014",
"R 	c #416212",
"S 	c #426213",
"T 	c #456010",
"U 	c #486713",
"V 	c #436B13",
"W 	c #3C5D11",
"X 	c #3D6612",
"Y 	c #436D13",
"Z 	c #446813",
"` 	c #466A13",
" .	c #477215",
"..	c #426D15",
"+.	c #436A14",
"@.	c #476813",
"#.	c #467115",
"$.	c #4D7A17",
"%.	c #457216",
"&.	c #426412",
"*.	c #4B7616",
"=.	c #456814",
"-.	c #456513",
";.	c #426311",
">.	c #446B14",
",.	c #467015",
"'.	c #466F15",
").	c #487315",
"!.	c #487516",
"~.	c #487215",
"{.	c #436E14",
"].	c #436E15",
"^.	c #477015",
"/.	c #405E11",
"(.	c #476E14",
"_.	c #456313",
":.	c #416613",
"<.	c #436712",
"[.	c #426C13",
"}.	c #416D14",
"|.	c #436F13",
"1.	c #436C15",
"2.	c #405F11",
"3.	c #477014",
"4.	c #426612",
"5.	c #406914",
"6.	c #487115",
"7.	c #486B15",
"8.	c #466D15",
"9.	c #446913",
"0.	c #456E14",
"a.	c #466613",
"b.	c #456A13",
"c.	c #476713",
"d.	c #456712",
"e.	c #457115",
"f.	c #819575",
"g.	c #AEB7A9",
"h.	c #CED2CC",
"i.	c #EAECE9",
"j.	c #F5F5F5",
"k.	c #FAFAFA",
"l.	c #F6F6F6",
"m.	c #EBEDEA",
"n.	c #D7DAD5",
"o.	c #B0B6AB",
"p.	c #7D8A72",
"q.	c #437014",
"r.	c #497415",
"s.	c #486E15",
"t.	c #3F550E",
"u.	c #405B11",
"v.	c #406A13",
"w.	c #4B7A17",
"x.	c #416210",
"y.	c #416813",
"z.	c #416312",
"A.	c #466412",
"B.	c #487716",
"C.	c #436813",
"D.	c #436814",
"E.	c #406512",
"F.	c #84907B",
"G.	c #7A8176",
"H.	c #8D8D8D",
"I.	c #B2B2B2",
"J.	c #CACACA",
"K.	c #E7E7E7",
"L.	c #F2F2F2",
"M.	c #EEEEEE",
"N.	c #F1F1F1",
"O.	c #D1D1D1",
"P.	c #9A9E97",
"Q.	c #6C8260",
"R.	c #456C15",
"S.	c #4D7617",
"T.	c #456E16",
"U.	c #476913",
"V.	c #477315",
"W.	c #4A7616",
"X.	c #416111",
"Y.	c #487214",
"Z.	c #476B15",
"`.	c #466713",
" +	c #477116",
".+	c #446B13",
"++	c #416110",
"@+	c #466D14",
"#+	c #467316",
"$+	c #859578",
"%+	c #6E7967",
"&+	c #262626",
"*+	c #020202",
"=+	c #0E0E0E",
"-+	c #191919",
";+	c #4A4A4A",
">+	c #F9F9F9",
",+	c #F8F8F8",
"'+	c #EFEFEF",
")+	c #8E8E8E",
"!+	c #2A2A2A",
"~+	c #1C1C1C",
"{+	c #364527",
"]+	c #5A6B47",
"^+	c #436D16",
"/+	c #4A7416",
"(+	c #457315",
"_+	c #416A14",
":+	c #416D13",
"<+	c #4B7717",
"[+	c #4C7415",
"}+	c #486A14",
"|+	c #4D7917",
"1+	c #426A13",
"2+	c #4D7416",
"3+	c #466511",
"4+	c #8E9887",
"5+	c #4A4F47",
"6+	c #000000",
"7+	c #080808",
"8+	c #AAAAAA",
"9+	c #FBFBFB",
"0+	c #FFFFFF",
"a+	c #DEDEDE",
"b+	c #505050",
"c+	c #111E02",
"d+	c #526740",
"e+	c #467315",
"f+	c #446A14",
"g+	c #416C15",
"h+	c #436714",
"i+	c #41590F",
"j+	c #426713",
"k+	c #4B7B18",
"l+	c #426B13",
"m+	c #477316",
"n+	c #4C7817",
"o+	c #477114",
"p+	c #A1AA9B",
"q+	c #5F605F",
"r+	c #858585",
"s+	c #F4F4F4",
"t+	c #FDFDFD",
"u+	c #C8C8C8",
"v+	c #343434",
"w+	c #070F02",
"x+	c #556948",
"y+	c #497416",
"z+	c #436914",
"A+	c #496D15",
"B+	c #487415",
"C+	c #436313",
"D+	c #406913",
"E+	c #A6B19F",
"F+	c #D5D6D5",
"G+	c #535353",
"H+	c #6B6B6B",
"I+	c #E4E4E4",
"J+	c #F7F7F7",
"K+	c #969696",
"L+	c #292D28",
"M+	c #87917E",
"N+	c #435A10",
"O+	c #446E15",
"P+	c #466712",
"Q+	c #457116",
"R+	c #466914",
"S+	c #496A13",
"T+	c #446612",
"U+	c #4A7817",
"V+	c #446412",
"W+	c #446513",
"X+	c #8C9B82",
"Y+	c #E7E8E6",
"Z+	c #DBDBDB",
"`+	c #414141",
" @	c #050505",
".@	c #3E3E3E",
"+@	c #888888",
"@@	c #D2D2D2",
"#@	c #FEFEFE",
"$@	c #DADADA",
"%@	c #404040",
"&@	c #040404",
"*@	c #C5C6C4",
"=@	c #88977E",
"-@	c #406B13",
";@	c #4B7115",
">@	c #436614",
",@	c #3D6111",
"'@	c #456812",
")@	c #CACEC8",
"!@	c #636363",
"~@	c #949494",
"{@	c #C5C5C5",
"]@	c #EAEAEA",
"^@	c #EBEBEB",
"/@	c #ECECEC",
"(@	c #939393",
"_@	c #565656",
":@	c #CFCFCF",
"<@	c #D6D9D4",
"[@	c #466B13",
"}@	c #3F6112",
"|@	c #456A14",
"1@	c #497115",
"2@	c #A4AF9D",
"3@	c #DFDFDF",
"4@	c #F0F0F0",
"5@	c #E3E3E3",
"6@	c #FCFCFC",
"7@	c #9DA996",
"8@	c #4A7216",
"9@	c #456613",
"0@	c #406011",
"a@	c #3F6011",
"b@	c #446212",
"c@	c #CDD0CB",
"d@	c #E9E9E9",
"e@	c #D6D8D4",
"f@	c #467215",
"g@	c #4A7316",
"h@	c #3E6613",
"i@	c #496913",
"j@	c #4B7315",
"k@	c #446213",
"l@	c #85917A",
"m@	c #E6E6E6",
"n@	c #E2E2E2",
"o@	c #C7C7C7",
"p@	c #C2C2C2",
"q@	c #CDCDCD",
"r@	c #CECECE",
"s@	c #E1E1E1",
"t@	c #7D9270",
"u@	c #497616",
"v@	c #456B13",
"w@	c #456612",
"x@	c #466513",
"y@	c #42570F",
"z@	c #B6BCB2",
"A@	c #C3C3C3",
"B@	c #030303",
"C@	c #BCBCBC",
"D@	c #B1BAAC",
"E@	c #436812",
"F@	c #425D11",
"G@	c #497214",
"H@	c #435F11",
"I@	c #D2D5D0",
"J@	c #8C8C8C",
"K@	c #7F7F7F",
"L@	c #F3F3F3",
"M@	c #D3D8D0",
"N@	c #446712",
"O@	c #426712",
"P@	c #446512",
"Q@	c #415910",
"R@	c #E0E2DF",
"S@	c #353535",
"T@	c #2F2F2F",
"U@	c #E7E9E6",
"V@	c #487515",
"W@	c #406612",
"X@	c #446912",
"Y@	c #486B14",
"Z@	c #446311",
"`@	c #E8E9E8",
" #	c #B6B6B6",
".#	c #D6D6D6",
"+#	c #B5B5B5",
"@#	c #0F0F0F",
"##	c #0D0D0D",
"$#	c #A7A7A7",
"%#	c #E9EAE9",
"&#	c #4A7717",
"*#	c #406714",
"=#	c #416C14",
"-#	c #EDEDED",
";#	c #D7D7D7",
">#	c #626262",
",#	c #838383",
"'#	c #808080",
")#	c #B9B9B9",
"!#	c #486C14",
"~#	c #E5E6E5",
"{#	c #797979",
"]#	c #818181",
"^#	c #DCDCDC",
"/#	c #616161",
"(#	c #959595",
"_#	c #60625F",
":#	c #446B12",
"<#	c #D9DBD9",
"[#	c #161616",
"}#	c #A2A2A2",
"|#	c #6E6E6E",
"1#	c #D3D3D3",
"2#	c #B3B3B3",
"3#	c #4F534C",
"4#	c #446112",
"5#	c #466C13",
"6#	c #497014",
"7#	c #476F15",
"8#	c #3F6813",
"9#	c #CED1CB",
"0#	c #5C5C5C",
"a#	c #1F1F1F",
"b#	c #8B8B8B",
"c#	c #2E2E2E",
"d#	c #010101",
"e#	c #979797",
"f#	c #E5E5E5",
"g#	c #E0E0E0",
"h#	c #606C58",
"i#	c #456813",
"j#	c #416714",
"k#	c #476F14",
"l#	c #426F13",
"m#	c #B9BEB4",
"n#	c #181818",
"o#	c #BFBFBF",
"p#	c #585858",
"q#	c #6A6A6A",
"r#	c #C0C0C0",
"s#	c #7C8972",
"t#	c #406312",
"u#	c #446F14",
"v#	c #466C14",
"w#	c #436612",
"x#	c #89997D",
"y#	c #090909",
"z#	c #393939",
"A#	c #212121",
"B#	c #7A896B",
"C#	c #477516",
"D#	c #445D10",
"E#	c #3F5F11",
"F#	c #405B10",
"G#	c #477416",
"H#	c #D5D8D3",
"I#	c #6C6C6C",
"J#	c #202020",
"K#	c #838780",
"L#	c #466313",
"M#	c #436D14",
"N#	c #415F10",
"O#	c #40560E",
"P#	c #436A13",
"Q#	c #AAB4A4",
"R#	c #D5D5D5",
"S#	c #1D1D1D",
"T#	c #757575",
"U#	c #9AA991",
"V#	c #3F6212",
"W#	c #435E10",
"X#	c #497515",
"Y#	c #486914",
"Z#	c #D4D8D2",
"`#	c #A3A3A3",
" $	c #D4D4D4",
".$	c #C1C6BE",
"+$	c #436B14",
"@$	c #3E6311",
"#$	c #92A289",
"$$	c #E2E3E1",
"%$	c #DEE0DD",
"&$	c #8FA284",
"*$	c #426413",
"=$	c #3E5F11",
"-$	c #446D13",
";$	c #436011",
">$	c #B2BDAC",
",$	c #9C9C9C",
"'$	c #A4A4A4",
")$	c #E8E8E8",
"!$	c #ABB5A4",
"~$	c #3F5F10",
"{$	c #3F6412",
"]$	c #427014",
"^$	c #405C10",
"/$	c #456912",
"($	c #426513",
"_$	c #426914",
":$	c #447016",
"<$	c #446C13",
"[$	c #416612",
"}$	c #BAC0B5",
"|$	c #BEBEBE",
"1$	c #5E5E5E",
"2$	c #282828",
"3$	c #101010",
"4$	c #303030",
"5$	c #696969",
"6$	c #B2BAAD",
"7$	c #426512",
"8$	c #436111",
"9$	c #497717",
"0$	c #456815",
"a$	c #467114",
"b$	c #4B7B17",
"c$	c #405E10",
"d$	c #B1BBAC",
"e$	c #EBECEB",
"f$	c #9D9D9D",
"g$	c #AEB6A8",
"h$	c #4A7515",
"i$	c #456112",
"j$	c #4B7516",
"k$	c #406213",
"l$	c #486E14",
"m$	c #496F14",
"n$	c #406112",
"o$	c #467016",
"p$	c #406413",
"q$	c #919B88",
"r$	c #DBDFD8",
"s$	c #C6C6C6",
"t$	c #D5D8D2",
"u$	c #91A088",
"v$	c #426D14",
"w$	c #405C11",
"x$	c #4A7916",
"y$	c #456C16",
"z$	c #436211",
"A$	c #4B7816",
"B$	c #476C13",
"C$	c #406211",
"D$	c #ABB4A4",
"E$	c #DFE1DE",
"F$	c #7D7D7D",
"G$	c #515151",
"H$	c #383838",
"I$	c #5F5F5F",
"J$	c #B1B1B1",
"K$	c #D7DBD6",
"L$	c #A9B4A2",
"M$	c #3F6912",
"N$	c #436E13",
"O$	c #436C13",
"P$	c #4A7015",
"Q$	c #487416",
"R$	c #476E15",
"S$	c #436F14",
"T$	c #466A14",
"U$	c #416B13",
"V$	c #406412",
"W$	c #446313",
"X$	c #87937D",
"Y$	c #BDC4B8",
"Z$	c #DBDFD9",
"`$	c #E8E9E7",
" %	c #E4E5E4",
".%	c #DBDCDB",
"+%	c #D4D5D3",
"@%	c #CDD1CA",
"#%	c #BBC2B6",
"$%	c #899A7D",
"%%	c #436611",
"&%	c #496D14",
"*%	c #3D5D11",
"=%	c #446E14",
"-%	c #466D16",
";%	c #456A15",
">%	c #486D13",
",%	c #406613",
"'%	c #446B15",
")%	c #3F6413",
"!%	c #436012",
"~%	c #466B15",
"{%	c #415E11",
"]%	c #467216",
"^%	c #4C7215",
"/%	c #497716",
"(%	c #416B14",
"_%	c #447014",
":%	c #436412",
"<%	c #487616",
"[%	c #467416",
"}%	c #406513",
"|%	c #466913",
"1%	c #3F6312",
"2%	c #4A7615",
"3%	c #3E6312",
"4%	c #436513",
"5%	c #3F6213",
"6%	c #457217",
"7%	c #497215",
"8%	c #477417",
"9%	c #416112",
"0%	c #476D15",
"a%	c #3B5E11",
"b%	c #446211",
"c%	c #497417",
"d%	c #476C14",
"e%	c #486C13",
"f%	c #456E13",
"g%	c #477016",
"h%	c #497114",
"i%	c #446F16",
"j%	c #426F15",
"k%	c #3E6213",
"l%	c #3D5F11",
"m%	c #406713",
"n%	c #3F5E11",
"o%	c #456B15",
"p%	c #487617",
"q%	c #435C11",
"r%	c #456611",
"s%	c #436711",
"t%	c #467116",
"u%	c #3E580F",
"v%	c #497216",
"w%	c #446D15",
"x%	c #446F15",
"y%	c #456C13",
"z%	c #446A15",
"A%	c #406C14",
"B%	c #446811",
"C%	c #486F16",
"D%	c #416814",
"  . + @ # $ % & * = - ; > , ' ) ! ~ { > ] ^ / ( _ : < [ } | 1 2 3 < 4 5 6 7 8 9 ",
"0 a b c d e ] f g h i j k ) l > m n - c o p q r s t b u v w x { j * y 9 z A B C ",
"* 4 D E F G y H I J p J K L A M N O P Q R S T U = V W X Y Z `  ...+.@.#.$.%. .&.",
"*.=.-.;.>.,.Z '.).0 !.~.{.# ].< M ^./.(._.:.<.x + [.}.|.1.{ m 2.3.4.5.6.7.8.9.0.",
"4.q a.' < m <.b.(.'.c.d.e.6.f.g.h.i.j.k.l.m.n.o.p.+ q.r. .s.= - t.u.v.w.x.y.z.8.",
"+.+.5 =.A.3 B.) C.D.G E.F.G.H.I.J.K.L.M.M.M.N.K.O.P.Q.(.R.S.T.U.V.W.>.` X.Y.<.Z.",
"`. +{..+++@+#+0 t >.$+%+&+*+=+-+;+O.>+,+l.,+'+)+!+~+=+{+]+J ^+9./+(+_++.:+e.<+4.",
"[+}+|+1+>.2+3+G z.4+5+6+6+6+6+7+8+9+0+0+0+0+0+a+b+6+6+6+c+d+ .e+f+f+g+h+i+,.(.l ",
"j+^.k+~.l+m+n+o+p+q+6+6+6+6+6+r+s+0+0+0+0+0+0+t+u+v+6+6+6+w+x+l m y+h+i >.z+A+{ ",
"B+C+D+r R 0 '.E+F+G+6+6+6+6+H+I+0+0+0+0+0+0+0+0+J+K+6+6+6+6+L+M+N+. O+9 P+Z Q+R+",
"S+T+U+V+W+W.X+Y+Z+`+ @~+.@+@@@#@0+0+0+0+0+0+0+0+0+$@+@%@~+&@-+*@=@~ -@f ;@>.>@1 ",
"@+,@-.C.'@V.)@9+@@!@~@{@]@>+^@,+0+0+0+0+0+0+0+0+,+K.l./@{@(@_@:@<@[@}@|@1@1+1@1 ",
"C.#.: z.h 2@M.>+3@N.9+#@0+0+J+K.t+0+0+0+0+0+0+t+]@4@#@0+#@k.M.5@6@7@1.8@9@@+0.B ",
"0@a@O+V b@c@t+]@s+0+0+0+0+0+0+'+]@#@#@#@0+#@6@/@d@9+0+0+0+0+0+4@d@e@f@g@h@i@{.j@",
"k@p v / l@/@6@m@0+0+0+0+0+0+0+#@n@o@p@{@q@r@:@n@J+#@0+0+0+0+0+#@s@6@t@u@v@4 w@x@",
"f@y@W+6 z@j.j.N.0+0+0+0+0+0+0+6@A@B@6+6+6+6+6+C@J+0+0+0+0+0+0+0+M.J+D@,.E@w@'.F@",
"G@] 1 H@I@j.4@j.0+0+0+0+0+0+0+J+J@6+6+6+6+6+6+K@L@0+0+0+0+0+0+0+s+s+M@m+N@D.> O@",
"> C P@Q@R@>+]@,+0+0+0+0+0+0+#@I+S@6+6+6+6+6+6+T@5@0+0+0+0+0+0+0+>+^@U@V@+ W@t X@",
"c Y@9 Z@`@,+ #.#0+0+0+0+0+0+t++#@#6+6+6+6+6+6+##+#t+0+0+0+0+0+0+m@$#%#&#9.*#1 =#",
"0 ,.h 2 -#;#`+>#m@0+0+0+0+0+s+,#6+6+6+6+6+6+6+6+r+s+#@0+0+0+0+4@'#@#)#h O ~ M c ",
"!#m V+[@~#{#6+ @]#'+0+#@6@s+^#/#6+6+6+6+6+6+6+6+/#Z+'+>+t+0+j.(#=+6+_#{.T F @+4 ",
"D.& :#8.<#%@6+6+[#}#/@-#M.L@j.:@/#6+6+6+6+6+6+|#1#j.^@m@]@N.2#&+6+6+3#9 4#5#6#}+",
"` 7#8#, 9#0#6+6+6+a#s@t+#@0+0+t+m@b#c#d#B@S@e#f##@0+#@k.N.g#v+6+6+6+h#c i#j#W@k#",
"+ f+l#O+m#r+6+6+6+n#'+0+0+0+0+0+0+s+o#p#q#r#'+#@0+0+0+0+0+L.T@6+6+6+s#M 1@9 t#u#",
"[@V+v#w#x#p@y#6+6+z#L@0+0+0+0+0+0+#@k.s@a+l.0+0+0+0+0+0+0+L.&+6+6+A#B#5 C#1 D#y.",
"f+E#i F#G#H#I#6+6+b+l.0+0+0+0+0+0+0+0+M.4@0+0+0+0+0+0+0+0+4@J#6+6+K#h L#M#N }+N#",
"O#P#@ P#R Q#R#K+;+q#J+0+0+0+0+0+0+0+0+M.'+0+0+0+0+0+0+0+0+'+S#S@T#U#V#W#t##+J >.",
"X#0 O+k Y#~ Z#/@]@q@N.0+0+0+0+0+0+0+0+-#N.0+0+0+0+0+0+0+0+K.`# $.$+$C.b@R+!.@$k#",
"h c i u s.O #$$$N.t+f#j.0+0+0+0+0+0+0+/@N.0+0+0+0+0+0+#@L@5@9+%$&$*$<.P@=$-$F y ",
"z.e.;$b.^.j+8.>$-#N.9+d@M.#@0+0+0+j.:@,$'$$@k.0+0+0+t+^@^@k.)$!$. |@~${$i ]$Z ^$",
"/$($_$:$}@<$[$+ }$/@M.9+M.K.l.-#|$1$2$##3$4$5$)#5@s+I+N.>+I+6$W+M r 7$N@P@P#V.8$",
"9$4 `.0$a$b$9 c$= d$e$-#L.l.^@f$6+6+6+6+6+6+6+6+|#I+J+-#$$g$x h$) . 8.; * N@i$j$",
"f+k${ 9.9.l$m$n$o$p$q$r$L@)$J+^@|#6+6+6+6+6+6+S@s$L@I+t$u$. @ #.k v$_+w$u@X#{ x$",
"y$(.).z$A$o B$W.P C$- ] D$E$L.M.@@F$G$H$4$H$I$J$^@K$L$0.M$!#r N$e.v#O$P+G P$O Q$",
"c &.{ R$S$T$9 e.U$V$W$3.>.8.X$Y$Z$`$ %g#.%+%@%#%$%* { ) %%1@J *#y+C#l$&%e.j+ .& ",
"# 2 ) E@{$*%O@=%F X@-%F ;%>%@ ,%1 r '%c + _ )%p$y g@!%~%{%]%1 [.] ^%D.W++ /%(%_%",
":%<%b.,.[%,.9./+n+i#8 0.X.}%|%f+=.1%D.8.2%3%E@4%Q$M#r 5%J ,.~._%}%7#s.z+z$3.6%@+",
"7%8%G ) 9%' i#@+@+0%a%>.b%[$>.c%d%e%=%W$f%m u@/+w U+g%h%1 i%Z ,%v##.m+j%k%V#T$l%",
"~.X#O !.~ m%4 @.&.n%A.s.o%0@~ p%9.9 q%r%) w s%+.X#x$[ :.f+*#y.` f+Z <$t%M#_$V$u%",
"1 O+H d%=#7 . v%w%i#[ i#x%m$H@y%B+C.U.J z+r [@ .0 d%<.g+/$i 9@z%A%B%<$C%!.+.D%` "};
