/* XPM */
static char * empty_texture2_xpm[] = {
"40 40 541 2",
"  	c #416411",
". 	c #456E15",
"+ 	c #446A13",
"@ 	c #426813",
"# 	c #426613",
"$ 	c #487014",
"% 	c #426812",
"& 	c #456F15",
"* 	c #497316",
"= 	c #456914",
"- 	c #466814",
"; 	c #3E5C10",
"> 	c #486D14",
", 	c #487114",
"' 	c #456913",
") 	c #456D14",
"! 	c #426212",
"~ 	c #446C14",
"{ 	c #476D14",
"] 	c #436713",
"^ 	c #486812",
"/ 	c #425D10",
"( 	c #406212",
"_ 	c #426714",
": 	c #447015",
"< 	c #446C15",
"[ 	c #416A13",
"} 	c #4A7917",
"| 	c #416513",
"1 	c #436913",
"2 	c #436912",
"3 	c #487216",
"4 	c #446713",
"5 	c #456312",
"6 	c #426111",
"7 	c #426E15",
"8 	c #456713",
"9 	c #456C14",
"0 	c #457015",
"a 	c #416413",
"b 	c #456512",
"c 	c #477115",
"d 	c #425F12",
"e 	c #3F6211",
"f 	c #436212",
"g 	c #416713",
"h 	c #446D14",
"i 	c #426A14",
"j 	c #476A14",
"k 	c #466E14",
"l 	c #416914",
"m 	c #466B14",
"n 	c #487016",
"o 	c #456111",
"p 	c #426913",
"q 	c #476A13",
"r 	c #456B14",
"s 	c #406814",
"t 	c #466E15",
"u 	c #486F15",
"v 	c #426B14",
"w 	c #497315",
"x 	c #466813",
"y 	c #476B14",
"z 	c #497016",
"A 	c #456F16",
"B 	c #496E13",
"C 	c #456412",
"D 	c #476B13",
"E 	c #405D10",
"F 	c #416712",
"G 	c #446914",
"H 	c #426313",
"I 	c #4A7415",
"J 	c #436C14",
"K 	c #497516",
"L 	c #426112",
"M 	c #436613",
"N 	c #477216",
"O 	c #487015",
"P 	c #486F14",
"Q 	c #467014",
"R 	c #416212",
"S 	c #426213",
"T 	c #456010",
"U 	c #486713",
"V 	c #436B13",
"W 	c #3C5D11",
"X 	c #3D6612",
"Y 	c #436D13",
"Z 	c #446813",
"` 	c #466A13",
" .	c #477215",
"..	c #426D15",
"+.	c #436A14",
"@.	c #476813",
"#.	c #467115",
"$.	c #4D7A17",
"%.	c #457216",
"&.	c #426412",
"*.	c #4B7616",
"=.	c #456814",
"-.	c #456513",
";.	c #426311",
">.	c #446B14",
",.	c #467015",
"'.	c #466F15",
").	c #487315",
"!.	c #487516",
"~.	c #487215",
"{.	c #436E14",
"].	c #436E15",
"^.	c #477015",
"/.	c #405E11",
"(.	c #476E14",
"_.	c #456313",
":.	c #416613",
"<.	c #436712",
"[.	c #426C13",
"}.	c #416D14",
"|.	c #436F13",
"1.	c #436C15",
"2.	c #405F11",
"3.	c #477014",
"4.	c #426612",
"5.	c #406914",
"6.	c #487115",
"7.	c #486B15",
"8.	c #466D15",
"9.	c #446913",
"0.	c #456E14",
"a.	c #466613",
"b.	c #456A13",
"c.	c #476713",
"d.	c #456712",
"e.	c #457115",
"f.	c #457014",
"g.	c #426D14",
"h.	c #435C10",
"i.	c #486A14",
"j.	c #477416",
"k.	c #466811",
"l.	c #437014",
"m.	c #497415",
"n.	c #486E15",
"o.	c #3F550E",
"p.	c #405B11",
"q.	c #406A13",
"r.	c #4B7A17",
"s.	c #416210",
"t.	c #416813",
"u.	c #416312",
"v.	c #466412",
"w.	c #487716",
"x.	c #436813",
"y.	c #436814",
"z.	c #406512",
"A.	c #436A12",
"B.	c #3F6513",
"C.	c #487316",
"D.	c #446E15",
"E.	c #476C14",
"F.	c #426012",
"G.	c #446814",
"H.	c #467416",
"I.	c #456C15",
"J.	c #4D7617",
"K.	c #456E16",
"L.	c #476913",
"M.	c #477315",
"N.	c #4A7616",
"O.	c #416111",
"P.	c #487214",
"Q.	c #476B15",
"R.	c #466713",
"S.	c #477116",
"T.	c #446B13",
"U.	c #416110",
"V.	c #466D14",
"W.	c #467316",
"X.	c #4A6F15",
"Y.	c #4C7917",
"Z.	c #497416",
"`.	c #467215",
" +	c #436312",
".+	c #426312",
"++	c #456F14",
"@+	c #476411",
"#+	c #446E14",
"$+	c #497716",
"%+	c #456B13",
"&+	c #436012",
"*+	c #497115",
"=+	c #476F15",
"-+	c #446111",
";+	c #436D16",
">+	c #4A7416",
",+	c #457315",
"'+	c #416A14",
")+	c #416D13",
"!+	c #4B7717",
"~+	c #4C7415",
"{+	c #4D7917",
"]+	c #426A13",
"^+	c #4D7416",
"/+	c #466511",
"(+	c #436413",
"_+	c #4B7316",
":+	c #446A14",
"<+	c #416311",
"[+	c #466313",
"}+	c #436B14",
"|+	c #446F14",
"1+	c #496F15",
"2+	c #476814",
"3+	c #446F16",
"4+	c #466C14",
"5+	c #467315",
"6+	c #416C15",
"7+	c #436714",
"8+	c #41590F",
"9+	c #426713",
"0+	c #4B7B18",
"a+	c #426B13",
"b+	c #477316",
"c+	c #4C7817",
"d+	c #477114",
"e+	c #4A6E14",
"f+	c #456212",
"g+	c #426211",
"h+	c #406211",
"i+	c #496F14",
"j+	c #416814",
"k+	c #456D16",
"l+	c #436914",
"m+	c #496D15",
"n+	c #487415",
"o+	c #436313",
"p+	c #406913",
"q+	c #456411",
"r+	c #446712",
"s+	c #426914",
"t+	c #456B15",
"u+	c #456211",
"v+	c #456413",
"w+	c #467216",
"x+	c #466513",
"y+	c #435A10",
"z+	c #466712",
"A+	c #457116",
"B+	c #466914",
"C+	c #496A13",
"D+	c #446612",
"E+	c #4A7817",
"F+	c #446412",
"G+	c #446513",
"H+	c #3D6613",
"I+	c #476A12",
"J+	c #425F11",
"K+	c #415D11",
"L+	c #496E14",
"M+	c #466C15",
"N+	c #426614",
"O+	c #436512",
"P+	c #416C13",
"Q+	c #496C15",
"R+	c #486D15",
"S+	c #406713",
"T+	c #466C13",
"U+	c #436213",
"V+	c #406B13",
"W+	c #4B7115",
"X+	c #436614",
"Y+	c #3D6111",
"Z+	c #456812",
"`+	c #436F15",
" @	c #416412",
".@	c #466612",
"+@	c #4A6D15",
"@@	c #406513",
"#@	c #436412",
"$@	c #497215",
"%@	c #4A7617",
"&@	c #456B12",
"*@	c #476712",
"=@	c #466B13",
"-@	c #3F6112",
";@	c #456A14",
">@	c #446D15",
",@	c #436E13",
"'@	c #4A7216",
")@	c #426513",
"!@	c #426011",
"~@	c #4D7817",
"{@	c #4A7716",
"]@	c #3E6012",
"^@	c #426511",
"/@	c #436111",
"(@	c #456613",
"_@	c #406011",
":@	c #3F6011",
"<@	c #446212",
"[@	c #456813",
"}@	c #476E15",
"|@	c #466213",
"1@	c #487617",
"2@	c #4C7215",
"3@	c #405910",
"4@	c #466A14",
"5@	c #436612",
"6@	c #416013",
"7@	c #4A7316",
"8@	c #3E6613",
"9@	c #496913",
"0@	c #4B7315",
"a@	c #446213",
"b@	c #435F10",
"c@	c #426010",
"d@	c #446211",
"e@	c #436D14",
"f@	c #436513",
"g@	c #476C15",
"h@	c #406112",
"i@	c #497616",
"j@	c #456612",
"k@	c #42570F",
"l@	c #3F6111",
"m@	c #477516",
"n@	c #466F16",
"o@	c #416A12",
"p@	c #4C7A17",
"q@	c #496C14",
"r@	c #486C14",
"s@	c #3F5D10",
"t@	c #457215",
"u@	c #436812",
"v@	c #425D11",
"w@	c #497214",
"x@	c #435F11",
"y@	c #426814",
"z@	c #497015",
"A@	c #3D5B10",
"B@	c #426E14",
"C@	c #436A13",
"D@	c #456311",
"E@	c #426C14",
"F@	c #487616",
"G@	c #497417",
"H@	c #426712",
"I@	c #446512",
"J@	c #415910",
"K@	c #486B14",
"L@	c #467016",
"M@	c #476613",
"N@	c #3E5E11",
"O@	c #4C7114",
"P@	c #486E14",
"Q@	c #4B7215",
"R@	c #436B15",
"S@	c #416113",
"T@	c #497717",
"U@	c #487515",
"V@	c #406612",
"W@	c #446912",
"X@	c #446311",
"Y@	c #4A7315",
"Z@	c #416714",
"`@	c #416011",
" #	c #445C10",
".#	c #436915",
"+#	c #446812",
"@#	c #406813",
"##	c #476E13",
"$#	c #4A7717",
"%#	c #406714",
"&#	c #416C14",
"*#	c #486312",
"=#	c #4A7715",
"-#	c #446413",
";#	c #486F16",
">#	c #455F12",
",#	c #456011",
"'#	c #476E16",
")#	c #497817",
"!#	c #447116",
"~#	c #3F6913",
"{#	c #456C13",
"]#	c #486B13",
"^#	c #416913",
"/#	c #406110",
"(#	c #476D16",
"_#	c #446B12",
":#	c #446A15",
"<#	c #3E6612",
"[#	c #3F6511",
"}#	c #4A6F14",
"|#	c #416012",
"1#	c #3F6713",
"2#	c #3F6212",
"3#	c #446010",
"4#	c #436C13",
"5#	c #3C5D0F",
"6#	c #425F10",
"7#	c #446112",
"8#	c #497014",
"9#	c #3F6813",
"0#	c #435E11",
"a#	c #455F10",
"b#	c #466913",
"c#	c #416612",
"d#	c #406812",
"e#	c #4B7B17",
"f#	c #4D7616",
"g#	c #476F14",
"h#	c #426F13",
"i#	c #436210",
"j#	c #436A15",
"k#	c #447014",
"l#	c #456D13",
"m#	c #4A7215",
"n#	c #416010",
"o#	c #496C13",
"p#	c #4C7516",
"q#	c #436F14",
"r#	c #466312",
"s#	c #456D15",
"t#	c #406312",
"u#	c #4C7717",
"v#	c #446613",
"w#	c #467114",
"x#	c #4C6A13",
"y#	c #445D10",
"z#	c #3F5F11",
"A#	c #405B10",
"B#	c #476F16",
"C#	c #426815",
"D#	c #466F14",
"E#	c #487416",
"F#	c #477515",
"G#	c #3E6011",
"H#	c #415F10",
"I#	c #40560E",
"J#	c #425B11",
"K#	c #466E13",
"L#	c #436311",
"M#	c #4A7116",
"N#	c #435E10",
"O#	c #497515",
"P#	c #486914",
"Q#	c #477415",
"R#	c #416512",
"S#	c #486814",
"T#	c #466B15",
"U#	c #477016",
"V#	c #445D11",
"W#	c #4D7C18",
"X#	c #3E6311",
"Y#	c #3C5C10",
"Z#	c #4A7015",
"`#	c #476412",
" $	c #446411",
".$	c #406412",
"+$	c #426413",
"@$	c #3E5F11",
"#$	c #446D13",
"$$	c #436011",
"%$	c #3F6613",
"&$	c #446312",
"*$	c #405A0F",
"=$	c #3F5F10",
"-$	c #3F6412",
";$	c #427014",
">$	c #405C10",
",$	c #456912",
"'$	c #447016",
")$	c #446C13",
"!$	c #436211",
"~$	c #406D13",
"{$	c #497216",
"]$	c #426512",
"^$	c #456815",
"/$	c #405E10",
"($	c #415E11",
"_$	c #466512",
":$	c #436D15",
"<$	c #446A12",
"[$	c #466212",
"}$	c #446714",
"|$	c #4A7515",
"1$	c #456112",
"2$	c #4B7516",
"3$	c #406213",
"4$	c #406413",
"5$	c #416812",
"6$	c #446F15",
"7$	c #4A6C14",
"8$	c #405C11",
"9$	c #4A7916",
"0$	c #456C16",
"a$	c #4B7816",
"b$	c #476C13",
"c$	c #455D10",
"d$	c #437015",
"e$	c #497617",
"f$	c #3F6912",
"g$	c #416B13",
"h$	c #446313",
"i$	c #4B7517",
"j$	c #436611",
"k$	c #496D14",
"l$	c #3D5D11",
"m$	c #466D16",
"n$	c #456A15",
"o$	c #486D13",
"p$	c #406613",
"q$	c #446B15",
"r$	c #3F6413",
"s$	c #416B14",
"t$	c #3F6312",
"u$	c #4A7615",
"v$	c #3E6312",
"w$	c #3F6213",
"x$	c #457217",
"y$	c #477417",
"z$	c #416112",
"A$	c #476D15",
"B$	c #3B5E11",
"C$	c #486C13",
"D$	c #456E13",
"E$	c #497114",
"F$	c #426F15",
"G$	c #3E6213",
"H$	c #3D5F11",
"I$	c #3F5E11",
"J$	c #435C11",
"K$	c #456611",
"L$	c #436711",
"M$	c #467116",
"N$	c #3E580F",
"O$	c #406C14",
"P$	c #446811",
"  . + @ # $ % & * = - ; > , ' ) ! ~ { > ] ^ / ( _ : < [ } | 1 2 3 < 4 5 6 7 8 9 ",
"0 a b c d e ] f g h i j k ) l > m n - c o p q r s t b u v w x { j * y 9 z A B C ",
"* 4 D E F G y H I J p J K L A M N O P Q R S T U = V W X Y Z `  ...+.@.#.$.%. .&.",
"*.=.-.;.>.,.Z '.).0 !.~.{.# ].< M ^./.(._.:.<.x + [.}.|.1.{ m 2.3.4.5.6.7.8.9.0.",
"4.q a.' < m <.b.(.'.c.d.e.6.f.g.4 0 h.i.j.Y k.;.2.+ l.m. .n.= - o.p.q.r.s.t.u.8.",
"+.+.5 =.v.3 w.) x.y.G z.M  .A.B.k ,.C.n D.>.E.y F.G.H.(.I.J.K.L.M.N.>.` O.P.<.Q.",
"R.S.{.T.U.V.W.0 t >.X.Y.f.Z.`. +.+++@+#+M $+%+&+*+p =+=.-+J ;+9.>+,+'++.)+e.!+4.",
"~+i.{+]+>.^+/+G u.(+_+V.#.:+=+t <+,.[+}+(.|+1+2+r q +.3+&.4+ .5+:+:+6+7+8+,.(.l ",
"9+^.0+~.a+b+c+d+8.e+~.M f+g+Q 4+9.h+:+& H.4 d.i+) |+-+j+~ + k+l m Z.7+i >.l+m+{ ",
"n+o+p+r R 0 '. .&.q+].r+:.) s+,.b.i r t+E.u+D.M ( v v+x.'+J w+x+y+. D.9 z+Z A+B+",
"C+D+E+F+G+N.+ *+8.v H+'.I+J+Z K+x.L+M+N+9.O+P+Q+N ( < R+= S+T+U+9.~ V+f W+>.X+1 ",
"V.Y+-.x.Z+M.{ ,.`+ @+ 8..@+@b 9+4+w. +@ @@v #@@@+ d.z.$@%@T.&@>.*@=@-@;@*+]+*+1 ",
"x.#.: u.h >@9 ,@u.1+ .N+h '@)@!@~@k #@{@V m  @]@8.5+^@N 8./@) 4+Z M+1.'@(@V.0.B ",
"_@:@D.V <@O+[@Z.8 }@l+x x.|@x.5 1@,.x.> 4 2@3@1.F.4@E.i 5@6@8 S.~.(+`.7@8@9@{.0@",
"a@p v / b@) U+$ c@(.i.6.B+9+d@4+e@5@<@[@[@Z.f@0.g@R.=+L #@G+. h@V.:+e.i@%+4 j@x+",
"`.k@G+6 l@5@m@`.j@i@>.n@@@e.,.I.m >.G+f o@p@q@r@Z.s@9.3.' t@x+M K .+#+,.u@j@'.v@",
"w@] 1 x@y@J+k D+c 1 n@}+z@V _  +6 A@z.p+5@B@# C@%+#@i.H+b+|+D@E@$@F@G@b+r+y.> H@",
"> C I@J@K@>@x@4 { M.s+J L@L+<.: M@ @N@'.'.!.e@y 9.O@P@T+Q@. P R@f S@T@U@+ V@t W@",
"c K@9 X@~.G Y@8 *@<@Z@#+V@`@N@1 S. #b+.#9.o V.~ +#) @ b.>.@# +'@:.##].$#9.%#1 &#",
"0 ,.h 2 f *#=#P n.H@L.>.-#=.v ;#y.9 }@`.M+9+>#' L.>@,#f@u+9 I@K '#%+[@h O ~ M c ",
"r@m F+=@4 r )#+.c B+r u k f@:+:@1 j Z@7 !#y@H@~#T.}+/@{#]#^#/#3 (#&.#+{.T F V.4 ",
"y.& _#8.:#9 (++._@:+<#[@J <.Z.[#u }#|#1##+2#d@f.#.3##.>+t ` 4#& 5#i 6#9 7#T+8#i.",
"` =+9#, .@}@w+#+(@y.1 T 0#a#b#Z !#L+' c#C@O+r+*+1 i+=.b+U@ @d#l@e#{ f#c [@Z@V@g#",
"+ :+h#D.i#m@j#k#l#N.v.7@z@m#N.#+9.n#o#c N+p#f./ g@q#b M 8 0+{#r#9 s#Q@M *+9 t#|+",
"=@F+4+5@4+Z 7@d+&#,.c+u#v#l#j.8.w#Z+}@i@9+@ F@r O # ~.# N.F@# (.x#`.*@5 m@1 y#t.",
":+z#i A#j.g B#X@H@y.C#N.C@D#9 s#t l p *.e.M E#&.j.8#S.F# .i D.D.U@G#h [+e@N i.H#",
"I#C@@ C@R l+E+F D.g#t c n.I.F@E+e@T.9 F@w P@3.J# +~ [@0.=@K#L#I.M#$#2#N#t#W.J >.",
"O#0 D.k P#~ p+Q#R#c#3 4 >@n.S#T#U#X@3.x + #.j x V#z.d.3 9+W#=+=+N.}+x.<@B+!.X#g#",
"h c i u n.O V.4+L.` T+c#Y#++ @9+$@Z#3 `#>.>.7+:.y. $.$]#h@&.9 T@O#+$<.I@@$#$F y ",
"u.e.$$b.^.9+8.b+x.}@).r@4.a 4+i n.r 6.f+{ %$< @ &$9.h+*$G#' J k . ;@=$-$i ;$Z >$",
",$)@s+'$-@)$c#+ !$F#&.|+r l+x.l ;@O ~$>.b.4.w@M+y@t+}@8.K {$+#G+M r ]$r+I@C@M./@",
"T@4 R.^$w#e#9 /$= h r p *+{ }+($H T+.._$:$<$) R.- [$d+7@0 }$x |$) . 8.; * r+1$2$",
":+3${ 9.9.P@i+h@L@4$v@).)@+#5$5 6$6$s+}$1 '.t S.: j#N 7$+ . @ #.k g.'+8$i@O#{ 9$",
"0$(.).!$a$o b$N.P h+- ] ]#! & c$A S+d$>@!+9 m n+e$J s#0.f$r@r ,@e.4+4#z+G Z#O E#",
"c &.{ }@q#4@9 e.g$.$h$3.>.8.|#] 9.) r i$T#c.t+}+##* { ) j$*+J %#Z.m@P@k$e.9+ .& ",
"# 2 ) u@-$l$H@#+F W@m$F n$o$@ p$1 r q$c + _ r$4$y 7@&+T#($w+1 [.] 2@y.G++ $+s$k#",
"#@F@b.,.H.,.9.>+c+[@8 0.O.@@b#:+=.t$y.8.u$v$u@f@E#e@r w$J ,.~.k#@@=+n.l+!$3.x$V.",
"$@y$G ) z$' [@V.V.A$B$>.d@c#>.G@E.C$#+h$D$m i@>+w E+U#E$1 3+Z p$4+#.b+F$G$2#4@H$",
"~.O#O !.~ S+4 @.&.I$v.n.t+_@~ 1@9.9 J$K$) w L$+.O#9$[ :.:+%#t.` :+Z )$M$e@s+.$N$",
"1 D.H E.&#7 . {$>@[@[ [@6$i+x@{#n+x.L.J l+r =@ .0 E.<.6+,$i (@:#O$P$)$;#!.+.j+` "};
