/* XPM */
static char * exit_texture_xpm[] = {
"40 40 385 2",
"  	c #416411",
". 	c #456E15",
"+ 	c #446A13",
"@ 	c #426813",
"# 	c #426613",
"$ 	c #487014",
"% 	c #426812",
"& 	c #456F15",
"* 	c #497316",
"= 	c #456914",
"- 	c #466814",
"; 	c #3E5C10",
"> 	c #486D14",
", 	c #487114",
"' 	c #456913",
") 	c #456D14",
"! 	c #426212",
"~ 	c #446C14",
"{ 	c #476D14",
"] 	c #436713",
"^ 	c #486812",
"/ 	c #425D10",
"( 	c #406212",
"_ 	c #426714",
": 	c #447015",
"< 	c #446C15",
"[ 	c #416A13",
"} 	c #4A7917",
"| 	c #416513",
"1 	c #436913",
"2 	c #436912",
"3 	c #487216",
"4 	c #446713",
"5 	c #456312",
"6 	c #426111",
"7 	c #426E15",
"8 	c #456713",
"9 	c #456C14",
"0 	c #D0D0D0",
"a 	c #9A9A9A",
"b 	c #828282",
"c 	c #7F7F7F",
"d 	c #808080",
"e 	c #818181",
"f 	c #7E7E7E",
"g 	c #969696",
"h 	c #CCCCCC",
"i 	c #A6A6A6",
"j 	c #575757",
"k 	c #686868",
"l 	c #7B7B7B",
"m 	c #7A7A7A",
"n 	c #676767",
"o 	c #535353",
"p 	c #A2A2A2",
"q 	c #ECECEC",
"r 	c #F6F6F6",
"s 	c #F5F5F5",
"t 	c #F7F7F7",
"u 	c #F4F4F4",
"v 	c #EBEBEB",
"w 	c #525252",
"x 	c #C5C5C5",
"y 	c #6A6A6A",
"z 	c #EDEDED",
"A 	c #C9C9C9",
"B 	c #939393",
"C 	c #8B8B8B",
"D 	c #898989",
"E 	c #888888",
"F 	c #878787",
"G 	c #8F8F8F",
"H 	c #CACACA",
"I 	c #EAEAEA",
"J 	c #777777",
"K 	c #919191",
"L 	c #F0F0F0",
"M 	c #7C7C7C",
"N 	c #5B5B5B",
"O 	c #7D7D7D",
"P 	c #626262",
"Q 	c #707070",
"R 	c #F1F1F2",
"S 	c #999999",
"T 	c #959595",
"U 	c #6D6D6D",
"V 	c #9D9E9B",
"W 	c #F4F4F5",
"X 	c #A09FA3",
"Y 	c #656467",
"Z 	c #BCBCBC",
"` 	c #C3C3C3",
" .	c #DADADA",
"..	c #BFBFBF",
"+.	c #B9B9B9",
"@.	c #9E9E9B",
"#.	c #F4F4F6",
"$.	c #DBDBDB",
"%.	c #474747",
"&.	c #D4D4D4",
"*.	c #737373",
"=.	c #ACACAC",
"-.	c #696969",
";.	c #DCDCDC",
">.	c #D9D9D9",
",.	c #929292",
"'.	c #D8D8D8",
").	c #4B4B4B",
"!.	c #D3D3D3",
"~.	c #727272",
"{.	c #A1A1A1",
"].	c #ABABAB",
"^.	c #494949",
"/.	c #D7D7D7",
"(.	c #6E6E6E",
"_.	c #B0B0B0",
":.	c #B1B1B1",
"<.	c #A0A0A0",
"[.	c #4D4D4D",
"}.	c #989898",
"|.	c #B3B3B3",
"1.	c #B5B5B5",
"2.	c #B4B4B4",
"3.	c #AEAEAE",
"4.	c #5D5D5D",
"5.	c #B2B2B2",
"6.	c #5A5A5A",
"7.	c #9B9B9B",
"8.	c #D2D2D2",
"9.	c #ADADAD",
"0.	c #606060",
"a.	c #5E5E5E",
"b.	c #616161",
"c.	c #5F5F5F",
"d.	c #505050",
"e.	c #555555",
"f.	c #646464",
"g.	c #4F4F4F",
"h.	c #595959",
"i.	c #A7A7A7",
"j.	c #6F6F6F",
"k.	c #949494",
"l.	c #E5E5E5",
"m.	c #CBCBCB",
"n.	c #E6E6E6",
"o.	c #E7E7E7",
"p.	c #E4E4E4",
"q.	c #E0E0E0",
"r.	c #E2E2E2",
"s.	c #636363",
"t.	c #E3E3E3",
"u.	c #C6C6C6",
"v.	c #C2C2C2",
"w.	c #DFDFDF",
"x.	c #959596",
"y.	c #D2D2D3",
"z.	c #717171",
"A.	c #454545",
"B.	c #D6D6D6",
"C.	c #6D6D6E",
"D.	c #DEDEE0",
"E.	c #48484A",
"F.	c #D2D2D4",
"G.	c #737375",
"H.	c #A6A6A7",
"I.	c #464646",
"J.	c #929294",
"K.	c #D8D8D9",
"L.	c #48484B",
"M.	c #D1D1D2",
"N.	c #707071",
"O.	c #A5A5A7",
"P.	c #A4A4A4",
"Q.	c #6F8460",
"R.	c #6C6C6D",
"S.	c #BEBEC0",
"T.	c #8B8B8C",
"U.	c #8A8A8C",
"V.	c #7B7B7D",
"W.	c #4A4A4C",
"X.	c #7A7A7B",
"Y.	c #8B8B8D",
"Z.	c #8E8E90",
"`.	c #8A8A8B",
" +	c #5A5A5C",
".+	c #666668",
"++	c #8C8C8D",
"@+	c #545454",
"#+	c #8C8C8C",
"$+	c #8D8D8D",
"%+	c #797979",
"&+	c #4C4C4C",
"*+	c #868686",
"=+	c #B8B8B8",
"-+	c #949496",
";+	c #C4C4C6",
">+	c #8C8C8E",
",+	c #7E7E80",
"'+	c #4D4D4F",
")+	c #79797A",
"!+	c #88888A",
"~+	c #565658",
"{+	c #69696B",
"]+	c #6B6B6B",
"^+	c #8A8A8A",
"/+	c #4E4E4E",
"(+	c #BDBDBD",
"_+	c #CFCFD0",
":+	c #717172",
"<+	c #A0A0A1",
"[+	c #A4AE9E",
"}+	c #929293",
"|+	c #DDDDDE",
"1+	c #454548",
"2+	c #D3D3D4",
"3+	c #737374",
"4+	c #A4A4A6",
"5+	c #666666",
"6+	c #444444",
"7+	c #DEDEDF",
"8+	c #474749",
"9+	c #D1D1D3",
"0+	c #707072",
"a+	c #919193",
"b+	c #E5E5E7",
"c+	c #E4E4E6",
"d+	c #C7C7C9",
"e+	c #49494B",
"f+	c #C1C1C2",
"g+	c #E6E6E7",
"h+	c #E7E7E8",
"i+	c #E0E0E1",
"j+	c #68686A",
"k+	c #98989A",
"l+	c #E5E5E6",
"m+	c #9C9C9C",
"n+	c #656566",
"o+	c #484848",
"p+	c #E1E2E1",
"q+	c #979799",
"r+	c #ACACAE",
"s+	c #616163",
"t+	c #626264",
"u+	c #5C5C5E",
"v+	c #4C4C4E",
"w+	c #606062",
"x+	c #636365",
"y+	c #646466",
"z+	c #525254",
"A+	c #545456",
"B+	c #5F5F61",
"C+	c #5D5D5F",
"D+	c #575759",
"E+	c #4F4F51",
"F+	c #5E5E60",
"G+	c #5C5C5C",
"H+	c #515151",
"I+	c #656565",
"J+	c #6E6E6F",
"K+	c #D6D6D8",
"L+	c #B4B4B5",
"M+	c #B2B2B3",
"N+	c #9C9C9E",
"O+	c #B2B2B4",
"P+	c #B3B3B4",
"Q+	c #AFAFB0",
"R+	c #7C7C7D",
"S+	c #B1B1B2",
"T+	c #B0B0B1",
"U+	c #A7A7A8",
"V+	c #D3D3D5",
"W+	c #727274",
"X+	c #A8A8AA",
"Y+	c #A9A9AB",
"Z+	c #6F6F70",
"`+	c #939395",
" @	c #DBDBDC",
".@	c #D4D4D5",
"+@	c #6E6E70",
"@@	c #A7A7A9",
"#@	c #9D9D9A",
"$@	c #676768",
"%@	c #F5F4F6",
"&@	c #9F9EA3",
"*@	c #6C6C6C",
"=@	c #DBDBDD",
"-@	c #747475",
";@	c #A6A6A8",
">@	c #676769",
",@	c #DDDDDD",
"'@	c #9C9C99",
")@	c #9F9EA2",
"!@	c #D0D0D1",
"~@	c #4B4B4D",
"{@	c #B0B0B2",
"]@	c #CECED0",
"^@	c #CFCFD1",
"/@	c #CACACB",
"(@	c #656567",
"_@	c #89898B",
":@	c #CDCDCE",
"<@	c #C0C0C2",
"[@	c #D1D1D1",
"}@	c #CDCDCD",
"|@	c #ABABAD",
"1@	c #535355",
"2@	c #4E4E50",
"3@	c #505052",
"4@	c #515153",
"5@	c #585858",
"6@	c #838383",
"7@	c #636364",
"8@	c #9A9A9B",
"9@	c #DADADB",
"0@	c #D9D9DA",
"a@	c #DCDCDD",
"b@	c #A3A3A2",
"c@	c #616160",
"d@	c #6B6B6C",
"e@	c #CECECE",
"f@	c #D5D5D5",
"g@	c #BBBBBB",
"h@	c #C7C7C7",
"i@	c #487215",
"j@	c #497515",
"k@	c #487015",
"l@	c #487516",
"m@	c #406713",
"n@	c #476813",
"o@	c #426412",
"p@	c #3F5E11",
"q@	c #466412",
"r@	c #486E15",
"s@	c #456B15",
"t@	c #406011",
"u@	c #487617",
"v@	c #446913",
"w@	c #435C11",
"x@	c #456611",
"y@	c #497315",
"z@	c #436711",
"A@	c #436A14",
"B@	c #4A7916",
"C@	c #416613",
"D@	c #446A14",
"E@	c #406714",
"F@	c #416813",
"G@	c #466A13",
"H@	c #446813",
"I@	c #446C13",
"J@	c #467116",
"K@	c #436D14",
"L@	c #426914",
"M@	c #406412",
"N@	c #3E580F",
"O@	c #446E15",
"P@	c #426313",
"Q@	c #476C14",
"R@	c #416C14",
"S@	c #497216",
"T@	c #446D15",
"U@	c #456813",
"V@	c #446F15",
"W@	c #496F14",
"X@	c #435F11",
"Y@	c #456C13",
"Z@	c #487415",
"`@	c #436813",
" #	c #476913",
".#	c #436C14",
"+#	c #436914",
"@#	c #456B14",
"##	c #466B13",
"$#	c #477215",
"%#	c #457015",
"&#	c #436712",
"*#	c #416C15",
"=#	c #456912",
"-#	c #426A14",
";#	c #456613",
">#	c #446A15",
",#	c #406C14",
"'#	c #446811",
")#	c #486F16",
"!#	c #416814",
"  . + @ # $ % & * = - ; > , ' ) ! ~ { > ] ^ / ( _ : < [ } | 1 2 3 < 4 5 6 7 8 9 ",
"@ @ @ @ @ @ @ @ @ @ @ @ @ @ @ @ @ @ @ @ @ @ @ @ @ @ @ @ @ @ @ @ @ @ @ @ @ @ @ @ ",
"@ @ @ @ @ @ @ @ @ @ @ @ @ @ @ @ @ @ @ @ @ @ @ @ @ @ @ @ @ @ @ @ @ @ @ @ @ @ @ @ ",
"@ @ @ @ @ @ @ @ @ @ @ @ @ @ @ @ @ @ @ @ @ @ @ @ @ @ @ @ @ @ @ @ @ @ @ @ @ @ @ @ ",
"@ 0 a b c d e e e e e e e e e e e e e e e e e e e e e e e e e e e d f g h @ @ @ ",
"i j k l d e e e e e e e e e e e e e e e e e e e e e e e e e e e e e m n o p @ @ ",
"j g q r r s r r r r r r r r r r r r r r r r r r r r r r r r r r r t u v i w x @ ",
"y z A B C C D E E E E E E E E E E E E E E E E E E E E E E E E E E F G H I J D @ ",
"K L M N d M M O M O O O O O f M O M M f M l M O M O f O M f f f f O P Q R S y @ ",
"T t U B @ @ @ @ @ @ @ @ @ @ @ @ @ @ @ @ @ @ @ @ @ @ @ @ @ @ @ @ @ @ V n W X Y @ ",
"T t U B @ @ @ @ @ Z @ @ @ @ @ `  .@ @ @ @  ...@ @ @ @ @ +.@ @ @ @ @ @.n #.X Y @ ",
"T t U B @ @ @ @ $.%.&.@ @ @ @ *.i @ @ @ @ =.-.@ @ @ @ ;.%.>.@ @ @ @ @.n #.X Y @ ",
"T t U ,.@ @ @ @ '.).!.@ @ @ @ ~.{.@ @ @ @ ].n @ @ @ @  .^./.@ @ @ @ @.n #.X Y @ ",
"T t (.,.@ &._.:.<.[.}.|.1.2.3.4.M :.1.5.5.O 6.=.:.3.5.7.[.7.2._.8.@ @.n #.X Y @ ",
"T t (.T @ 9.P 0.6.[.N a.b.a.c.d.e.a.c.b.a.j d.a.c.f.a.N g.h.P b.i.@ @.n #.X Y @ ",
"T t j.k.@ @ l.l.m.[...n.o.p.q.U }.p.l.r.r.}.s.$.t.r.p.u.^.v.w.t.@ @ @.n #.X Y @ ",
"T t (.x.@ @ @ @ t.).y.@ @ @ @ z.i @ @ @ @ =.k @ @ @ @ >.A.B.@ @ @ @ @.n #.X Y @ ",
"T t C.x.@ @ @ @ D.E.F.@ @ @ @ G.H.@ @ @ @ =.-.@ @ @ @  .I.B.@ @ @ @ @.n #.X Y @ ",
"T t Q J.@ @ @ @ K.L.M.@ @ @ @ N.O.@ @ @ @ P.-.Q.@ @ @ /.I.!.@ @ @ @ @.n #.X Y @ ",
"T t R.J.@ S.T.U.V.W.X.Y.Z.Y.`. +.+++D C E -.@+d #+$+F %+&+M #+*+=+@ @.n #.X Y @ ",
"T t R.-+@ ;+>+`.,+'+)+Y.T.U.!+~+{+T.C C #+]+o E ^+C ^+M /+m C #+(+@ @.n #.X Y @ ",
"T t R.J.@ @ @ @ K.E._+@ @ @ @ :+<+@ @ @ @ =.k [+@ @ @ B.^.8.@ @ @ @ @.n #.X Y @ ",
"T t U }+@ @ @ @ |+1+2+@ @ @ @ 3+4+@ @ @ @ ].5+@ @ @ @ >.6+'.@ @ @ @ @.n #.X Y @ ",
"T t C.J.@ @ @ @ 7+8+9+@ @ @ @ 0+4+@ @ @ @ 9.k @ @ @ @ '.^.'.@ @ @ @ @.n #.X Y @ ",
"T t R.a+@ @ b+c+d+e+f+g+h+g+i+j+k+l+o.n.n.m+n+$.l+p.l.u.o+` l.p+@ @ @.n #.X Y @ ",
"T t C.q+@ r+s+t+u+v+u+w+x+s+y+z+A+t+B+t+C+D+E+F+s+s+b.G+H+N I+b.i.@ @.n #.X Y @ ",
"T t J+x.@ K+L+M+N+'+k+O+P+M+Q+B+R+S+L+T+M+,+ +U+P+5.5.m+/+}.:.2./.@ @.n #.X Y @ ",
"T t C.k+@ @ @ @ 7+L.V+@ @ @ @ W+X+@ @ @ @ Y+{+@ @ @ @ ;.A.>.@ @ @ @ @.n #.X Y @ ",
"k.t Z+`+@ @ @ @  @L..@@ @ @ @ +@@@@ @ @ @ Y+{+@ @ @ @ /.o+/.@ @ @ @ #@$@%@&@Y @ ",
"k.t *@`+@ @ @ @ =@E.V+@ @ @ @ -@X+@ @ @ @ ;@>@@ @ @ @ ,@A. .@ @ @ @ '@k s )@Y @ ",
"k.t J+}+@ c+M.!@M+~@{@]@^@_+/@(@_@0 :@^@]@>+B+<@M.M.[@|.).3.}@}@p.@ '@k s )@Y @ ",
"k.t C.k+@ |@E+z+1@2@z+A+1@3@A+2@4@~+3@1@E+1@3@4@4@1@o o H+d.5@g.{.@ '@k s )@Y @ ",
"6@$.7@8@@ @ 9@0@9@0@|+ @a@;.9@ @9@ . @9@a@ @a@$. @;.>. .$. . .$.@ @ b@c@,@++d@@ ",
"g.4.6.e@@ @ @ @ @ @ @ @ @ @ @ @ @ @ @ @ @ @ @ @ @ @ @ @ @ @ @ @ @ @ f@G+4.o 9.@ ",
"u.g@f@@ @ @ @ @ @ @ @ @ @ @ @ @ @ @ @ @ @ @ @ @ @ @ @ @ @ @ @ @ @ @ @ [@=+h@@ @ ",
"@ @ @ @ @ @ @ @ @ @ @ @ @ @ @ @ @ @ @ @ @ @ @ @ @ @ @ @ @ @ @ @ @ @ @ @ @ @ @ @ ",
"@ @ @ @ @ @ @ @ @ @ @ @ @ @ @ @ @ @ @ @ @ @ @ @ @ @ @ @ @ @ @ @ @ @ @ @ @ @ @ @ ",
"@ @ @ @ @ @ @ @ @ @ @ @ @ @ @ @ @ @ @ @ @ @ @ @ @ @ @ @ @ @ @ @ @ @ @ @ @ @ @ @ ",
"i@j@k@l@~ m@4 n@o@p@q@r@s@t@~ u@v@9 w@x@) y@z@A@j@B@[ C@D@E@F@G@D@H@I@J@K@L@M@N@",
"1 O@P@Q@R@7 . S@T@U@[ U@V@W@X@Y@Z@`@ #.#+#@###$#%#Q@&#*#=#-#;#>#,#'#I@)#l@A@!#G@"};
