/* XPM */
static char * player_texture_xpm[] = {
"40 40 831 2",
"  	c #416411",
". 	c #456E15",
"+ 	c #446A13",
"@ 	c #426813",
"# 	c #426613",
"$ 	c #487014",
"% 	c #426812",
"& 	c #456F15",
"* 	c #497316",
"= 	c #456914",
"- 	c #466814",
"; 	c #3E5C10",
"> 	c #486D14",
", 	c #487114",
"' 	c #456913",
") 	c #456D14",
"! 	c #426212",
"~ 	c #446C14",
"{ 	c #476D14",
"] 	c #436713",
"^ 	c #486812",
"/ 	c #425D10",
"( 	c #406212",
"_ 	c #426714",
": 	c #447015",
"< 	c #446C15",
"[ 	c #416A13",
"} 	c #4A7917",
"| 	c #416513",
"1 	c #436913",
"2 	c #436912",
"3 	c #487216",
"4 	c #446713",
"5 	c #456312",
"6 	c #426111",
"7 	c #426E15",
"8 	c #456713",
"9 	c #456C14",
"0 	c #457015",
"a 	c #416413",
"b 	c #456512",
"c 	c #477115",
"d 	c #425F12",
"e 	c #3F6211",
"f 	c #436212",
"g 	c #416713",
"h 	c #446D14",
"i 	c #426A14",
"j 	c #476A14",
"k 	c #466E14",
"l 	c #416914",
"m 	c #507129",
"n 	c #D0D4CE",
"o 	c #C3C3C3",
"p 	c #9A9B99",
"q 	c #949693",
"r 	c #D3D4D2",
"s 	c #607B4B",
"t 	c #4B6C20",
"u 	c #456B14",
"v 	c #406814",
"w 	c #466E15",
"x 	c #486F15",
"y 	c #426B14",
"z 	c #497315",
"A 	c #466813",
"B 	c #476B14",
"C 	c #497016",
"D 	c #456F16",
"E 	c #496E13",
"F 	c #456412",
"G 	c #476B13",
"H 	c #405D10",
"I 	c #416712",
"J 	c #446914",
"K 	c #426313",
"L 	c #4A7415",
"M 	c #436C14",
"N 	c #426913",
"O 	c #497516",
"P 	c #426112",
"Q 	c #436613",
"R 	c #B8B8B6",
"S 	c #C9C7BF",
"T 	c #E2E1D9",
"U 	c #CECDC6",
"V 	c #969590",
"W 	c #C1C7BE",
"X 	c #718161",
"Y 	c #486713",
"Z 	c #436B13",
"` 	c #3C5D11",
" .	c #3D6612",
"..	c #436D13",
"+.	c #446813",
"@.	c #466A13",
"#.	c #477215",
"$.	c #426D15",
"%.	c #436A14",
"&.	c #476813",
"*.	c #467115",
"=.	c #4D7A17",
"-.	c #457216",
";.	c #426412",
">.	c #4B7616",
",.	c #456814",
"'.	c #456513",
").	c #426311",
"!.	c #446B14",
"~.	c #467015",
"{.	c #466F15",
"].	c #487315",
"^.	c #487516",
"/.	c #487215",
"(.	c #436E14",
"_.	c #436E15",
":.	c #A9A8A2",
"<.	c #BEBBAD",
"[.	c #E3E1D4",
"}.	c #D2D0C6",
"|.	c #CAC9C2",
"1.	c #B5B9B2",
"2.	c #708560",
"3.	c #426C13",
"4.	c #416D14",
"5.	c #436F13",
"6.	c #436C15",
"7.	c #466B14",
"8.	c #405F11",
"9.	c #477014",
"0.	c #426612",
"a.	c #406914",
"b.	c #487115",
"c.	c #486B15",
"d.	c #466D15",
"e.	c #446913",
"f.	c #456E14",
"g.	c #476A13",
"h.	c #466613",
"i.	c #436712",
"j.	c #456A13",
"k.	c #476E14",
"l.	c #476713",
"m.	c #456712",
"n.	c #457115",
"o.	c #457014",
"p.	c #426D14",
"q.	c #C3C3BA",
"r.	c #DDDACB",
"s.	c #E8E6D6",
"t.	c #F7F5E8",
"u.	c #EEECE2",
"v.	c #C2C2C0",
"w.	c #58743F",
"x.	c #437014",
"y.	c #497415",
"z.	c #486E15",
"A.	c #3F550E",
"B.	c #405B11",
"C.	c #406A13",
"D.	c #4B7A17",
"E.	c #416210",
"F.	c #416813",
"G.	c #416312",
"H.	c #466412",
"I.	c #487716",
"J.	c #436813",
"K.	c #436814",
"L.	c #406512",
"M.	c #436A12",
"N.	c #3F6513",
"O.	c #DBDCD5",
"P.	c #D2CCBD",
"Q.	c #D5CBBA",
"R.	c #F3EEDF",
"S.	c #EAE8DD",
"T.	c #BABFB6",
"U.	c #698156",
"V.	c #426012",
"W.	c #446814",
"X.	c #467416",
"Y.	c #456C15",
"Z.	c #4D7617",
"`.	c #456E16",
" +	c #476913",
".+	c #477315",
"++	c #4A7616",
"@+	c #416111",
"#+	c #487214",
"$+	c #476B15",
"%+	c #466713",
"&+	c #477116",
"*+	c #446B13",
"=+	c #416110",
"-+	c #466D14",
";+	c #467316",
">+	c #4A6F15",
",+	c #4C7917",
"'+	c #497416",
")+	c #467215",
"!+	c #436312",
"~+	c #E8EBE6",
"{+	c #D3CBBC",
"]+	c #D2C2B1",
"^+	c #EDE4D6",
"/+	c #EAE8DE",
"(+	c #859B77",
"_+	c #456B13",
":+	c #436012",
"<+	c #497115",
"[+	c #476F15",
"}+	c #446111",
"|+	c #436D16",
"1+	c #4A7416",
"2+	c #457315",
"3+	c #416A14",
"4+	c #416D13",
"5+	c #4B7717",
"6+	c #4C7415",
"7+	c #486A14",
"8+	c #4D7917",
"9+	c #426A13",
"0+	c #4D7416",
"a+	c #466511",
"b+	c #436413",
"c+	c #4B7316",
"d+	c #446A14",
"e+	c #4C7028",
"f+	c #D7DAD1",
"g+	c #DCD5C6",
"h+	c #D2C9B5",
"i+	c #E4DECF",
"j+	c #EDEAE0",
"k+	c #738B64",
"l+	c #476814",
"m+	c #446F16",
"n+	c #466C14",
"o+	c #467315",
"p+	c #416C15",
"q+	c #436714",
"r+	c #41590F",
"s+	c #426713",
"t+	c #477015",
"u+	c #4B7B18",
"v+	c #426B13",
"w+	c #477316",
"x+	c #4C7817",
"y+	c #477114",
"z+	c #4A6E14",
"A+	c #456212",
"B+	c #426211",
"C+	c #768E68",
"D+	c #CCCEC6",
"E+	c #ECE7E1",
"F+	c #DAD4C8",
"G+	c #D4D1BF",
"H+	c #EAE9D8",
"I+	c #F5F2E8",
"J+	c #C7CAC0",
"K+	c #D0D0C7",
"L+	c #647F4C",
"M+	c #446F14",
"N+	c #416814",
"O+	c #456D16",
"P+	c #436914",
"Q+	c #496D15",
"R+	c #487415",
"S+	c #436313",
"T+	c #406913",
"U+	c #416212",
"V+	c #456411",
"W+	c #446712",
"X+	c #416613",
"Y+	c #DFC3BF",
"Z+	c #C78482",
"`+	c #BE7B76",
" @	c #EADDCE",
".@	c #B2B0A5",
"+@	c #B8B3AB",
"@@	c #FCF6EA",
"#@	c #DDA89E",
"$@	c #CC6E6B",
"%@	c #E0B9B6",
"&@	c #738465",
"*@	c #456413",
"=@	c #467216",
"-@	c #466513",
";@	c #435A10",
">@	c #446E15",
",@	c #466712",
"'@	c #457116",
")@	c #466914",
"!@	c #496A13",
"~@	c #446612",
"{@	c #4A7817",
"]@	c #446412",
"^@	c #446513",
"/@	c #3D6613",
"(@	c #476A12",
"_@	c #425F11",
":@	c #AB5651",
"<@	c #DB8581",
"[@	c #CC6F6D",
"}@	c #C39490",
"|@	c #C7C0B7",
"1@	c #D3D2CA",
"2@	c #E5C5BC",
"3@	c #D77E7D",
"4@	c #E6A8A3",
"5@	c #C35957",
"6@	c #D0CAC7",
"7@	c #486D15",
"8@	c #406713",
"9@	c #466C13",
"0@	c #436213",
"a@	c #406B13",
"b@	c #4B7115",
"c@	c #436614",
"d@	c #3D6111",
"e@	c #456812",
"f@	c #436F15",
"g@	c #416412",
"h@	c #466612",
"i@	c #4A6D15",
"j@	c #AD6764",
"k@	c #BD5654",
"l@	c #CE645E",
"m@	c #B94C49",
"n@	c #C89F99",
"o@	c #DFC2B9",
"p@	c #C5625F",
"q@	c #D87C7B",
"r@	c #DB9994",
"s@	c #C04F4B",
"t@	c #B7B4AA",
"u@	c #497215",
"v@	c #4A7617",
"w@	c #456B12",
"x@	c #476712",
"y@	c #466B13",
"z@	c #3F6112",
"A@	c #456A14",
"B@	c #446D15",
"C@	c #436E13",
"D@	c #496F15",
"E@	c #426614",
"F@	c #4A7216",
"G@	c #A56461",
"H@	c #B14542",
"I@	c #B44540",
"J@	c #B2403B",
"K@	c #B13E3E",
"L@	c #B54540",
"M@	c #BD3A35",
"N@	c #B93C35",
"O@	c #BB4E47",
"P@	c #D17D77",
"Q@	c #BBBAAF",
"R@	c #426511",
"S@	c #477216",
"T@	c #436111",
"U@	c #466C15",
"V@	c #456613",
"W@	c #406011",
"X@	c #3F6011",
"Y@	c #446212",
"Z@	c #436512",
"`@	c #456813",
" #	c #476E15",
".#	c #466213",
"+#	c #985F59",
"@#	c #9B413C",
"##	c #A3413C",
"$#	c #A53A35",
"%#	c #A7332E",
"&#	c #A5352E",
"*#	c #A5332C",
"=#	c #A9332C",
"-#	c #AF4A44",
";#	c #B76762",
">#	c #D5CFC9",
",#	c #466A14",
"'#	c #476C14",
")#	c #436612",
"!#	c #416013",
"~#	c #4A7316",
"{#	c #3E6613",
"]#	c #496913",
"^#	c #4B7315",
"/#	c #446213",
"(#	c #435F10",
"_#	c #426010",
":#	c #A87974",
"<#	c #85342E",
"[#	c #852C27",
"}#	c #882823",
"|#	c #8D2722",
"1#	c #8E2723",
"2#	c #912926",
"3#	c #952C29",
"4#	c #9B3331",
"5#	c #A34D48",
"6#	c #ADB0A1",
"7#	c #436412",
"8#	c #406112",
"9#	c #497616",
"0#	c #456612",
"a#	c #42570F",
"b#	c #3F6111",
"c#	c #477516",
"d#	c #466F16",
"e#	c #406513",
"f#	c #B59591",
"g#	c #81322E",
"h#	c #863330",
"i#	c #832D2A",
"j#	c #862C26",
"k#	c #8C322C",
"l#	c #913630",
"m#	c #983A35",
"n#	c #A3413F",
"o#	c #AE6D6A",
"p#	c #D2D4CD",
"q#	c #3F5E10",
"r#	c #457215",
"s#	c #426312",
"t#	c #446E14",
"u#	c #436812",
"v#	c #425D11",
"w#	c #497214",
"x#	c #435F11",
"y#	c #426814",
"z#	c #436B14",
"A#	c #497015",
"B#	c #CFBCBA",
"C#	c #813B37",
"D#	c #823532",
"E#	c #883835",
"F#	c #8F3C36",
"G#	c #913D38",
"H#	c #933F3A",
"I#	c #963F39",
"J#	c #993D37",
"K#	c #BF9998",
"L#	c #D9DBD4",
"M#	c #456311",
"N#	c #426C14",
"O#	c #487616",
"P#	c #497417",
"Q#	c #426712",
"R#	c #446512",
"S#	c #415910",
"T#	c #486B14",
"U#	c #426914",
"V#	c #467016",
"W#	c #496E14",
"X#	c #E8DADB",
"Y#	c #9B5858",
"Z#	c #813533",
"`#	c #853632",
" $	c #913732",
".$	c #993734",
"+$	c #AC534D",
"@$	c #A74741",
"#$	c #A65450",
"$$	c #DFC9C6",
"%$	c #517133",
"&$	c #4B7014",
"*$	c #486E14",
"=$	c #4B7215",
"-$	c #486F14",
";$	c #436B15",
">$	c #416113",
",$	c #497717",
"'$	c #487515",
")$	c #406612",
"!$	c #446912",
"~$	c #446311",
"{$	c #4A7315",
"]$	c #416714",
"^$	c #416211",
"/$	c #ABADA1",
"($	c #905E5B",
"_$	c #926663",
":$	c #AD8886",
"<$	c #AF8482",
"[$	c #B88485",
"}$	c #C79B99",
"|$	c #D8B9B9",
"1$	c #DEC4C6",
"2$	c #BEBEB3",
"3$	c #527033",
"4$	c #406813",
"5$	c #476E13",
"6$	c #4A7717",
"7$	c #406714",
"8$	c #416C14",
"9$	c #486312",
"0$	c #4A7715",
"a$	c #446413",
"b$	c #A2AB99",
"c$	c #E3DADB",
"d$	c #E1DBDE",
"e$	c #E5E5E8",
"f$	c #EBEDEA",
"g$	c #F1F2EF",
"h$	c #F6F9F6",
"i$	c #E1E6E2",
"j$	c #C7CCC6",
"k$	c #637B4E",
"l$	c #456011",
"m$	c #436513",
"n$	c #456211",
"o$	c #476E16",
"p$	c #487015",
"q$	c #486C14",
"r$	c #497817",
"s$	c #7B8E6E",
"t$	c #B3BAB0",
"u$	c #E0E0DE",
"v$	c #E5E5E1",
"w$	c #E7E6E4",
"x$	c #EAEBE8",
"y$	c #F2F1EF",
"z$	c #E1E1DB",
"A$	c #C2C7BD",
"B$	c #517339",
"C$	c #456C13",
"D$	c #486B13",
"E$	c #416913",
"F$	c #406110",
"G$	c #476D16",
"H$	c #456010",
"I$	c #446B12",
"J$	c #446A15",
"K$	c #3E6612",
"L$	c #778F66",
"M$	c #CED0CC",
"N$	c #DEDEDD",
"O$	c #E5E5E5",
"P$	c #EBEBEB",
"Q$	c #E3E3E3",
"R$	c #E6E7E5",
"S$	c #CED2CC",
"T$	c #BDC3B9",
"U$	c #57793B",
"V$	c #446010",
"W$	c #436C13",
"X$	c #3C5D0F",
"Y$	c #425F10",
"Z$	c #446112",
"`$	c #497014",
" %	c #3F6813",
".%	c #435E11",
"+%	c #455F10",
"@%	c #697F56",
"#%	c #BDC2B9",
"$%	c #DFDFDF",
"%%	c #E6E6E6",
"&%	c #E1E1E1",
"*%	c #E2E3E1",
"=%	c #CCD0C9",
"-%	c #AEB6A8",
";%	c #597A3D",
">%	c #496F14",
",%	c #406812",
"'%	c #4B7B17",
")%	c #4D7616",
"!%	c #476F14",
"~%	c #426F13",
"{%	c #436210",
"]%	c #436A15",
"^%	c #447014",
"/%	c #456D13",
"(%	c #4A7215",
"_%	c #627F4B",
":%	c #DFDFDE",
"<%	c #E7E6E8",
"[%	c #ECEBEC",
"}%	c #E2E1E2",
"|%	c #EAE9EB",
"1%	c #E5E6E5",
"2%	c #CDD0CC",
"3%	c #5B6F44",
"4%	c #476C15",
"5%	c #436F14",
"6%	c #466312",
"7%	c #456D15",
"8%	c #406312",
"9%	c #4C7717",
"0%	c #446613",
"a%	c #658251",
"b%	c #D2D5D1",
"c%	c #DFDFDA",
"d%	c #E7E6E7",
"e%	c #EAE7E6",
"f%	c #E2DFDE",
"g%	c #E3E4E3",
"h%	c #A6AF9F",
"i%	c #5C7844",
"j%	c #4C6A13",
"k%	c #445D10",
"l%	c #3F5F11",
"m%	c #405B10",
"n%	c #477416",
"o%	c #476F16",
"p%	c #426815",
"q%	c #436A13",
"r%	c #466F14",
"s%	c #5C7945",
"t%	c #CED0C9",
"u%	c #D5D2C8",
"v%	c #DDDAD0",
"w%	c #D9D5CA",
"x%	c #D2CEC3",
"y%	c #DDD9CF",
"z%	c #E2E3DA",
"A%	c #D0D4CA",
"B%	c #5A7343",
"C%	c #477515",
"D%	c #3E6011",
"E%	c #466313",
"F%	c #436D14",
"G%	c #415F10",
"H%	c #40560E",
"I%	c #5F7E48",
"J%	c #BBC1B5",
"K%	c #D6D4C4",
"L%	c #E5DECE",
"M%	c #E6E2D4",
"N%	c #D7D3C5",
"O%	c #E5E0D2",
"P%	c #EAE9DE",
"Q%	c #DADED5",
"R%	c #5A6F43",
"S%	c #466E13",
"T%	c #436311",
"U%	c #4A7116",
"V%	c #3F6212",
"W%	c #435E10",
"X%	c #497515",
"Y%	c #486914",
"Z%	c #477415",
"`%	c #416512",
" &	c #416612",
".&	c #697E54",
"+&	c #E7E7E2",
"@&	c #D8D8CA",
"#&	c #E3E2D6",
"$&	c #E9E6DA",
"%&	c #DBD8CC",
"&&	c #E7E4D7",
"*&	c #ECECE2",
"=&	c #DCDED8",
"-&	c #5D7746",
";&	c #445D11",
">&	c #4D7C18",
",&	c #3E6311",
"'&	c #3C5C10",
")&	c #456F14",
"!&	c #627950",
"~&	c #E8E2DE",
"{&	c #D8C2B7",
"]&	c #E0CBC0",
"^&	c #E0C9BE",
"/&	c #D6C1B5",
"(&	c #E7D7C9",
"_&	c #E4D2C7",
":&	c #D0D1CA",
"<&	c #637B51",
"[&	c #446411",
"}&	c #406412",
"|&	c #426413",
"1&	c #3E5F11",
"2&	c #446D13",
"3&	c #436011",
"4&	c #617C4A",
"5&	c #CECDC4",
"6&	c #A2776F",
"7&	c #A9564D",
"8&	c #AA4E4C",
"9&	c #9A4642",
"0&	c #AA5853",
"a&	c #C38F8F",
"b&	c #D5D3CC",
"c&	c #657D53",
"d&	c #446312",
"e&	c #406211",
"f&	c #405A0F",
"g&	c #3F5F10",
"h&	c #3F6412",
"i&	c #427014",
"j&	c #405C10",
"k&	c #456912",
"l&	c #426513",
"m&	c #447016",
"n&	c #446C13",
"o&	c #436211",
"p&	c #5B7645",
"q&	c #E9EBE5",
"r&	c #B79391",
"s&	c #A6504E",
"t&	c #A7494A",
"u&	c #96403D",
"v&	c #A95250",
"w&	c #D1AEAE",
"x&	c #7C936C",
"y&	c #456B15",
"z&	c #497216",
"A&	c #446812",
"B&	c #426512",
"C&	c #456815",
"D&	c #467114",
"E&	c #405E10",
"F&	c #57763E",
"G&	c #C6CCC2",
"H&	c #C1A6A5",
"I&	c #A95353",
"J&	c #AA4E50",
"K&	c #974342",
"L&	c #AC5757",
"M&	c #DAC0BE",
"N&	c #768D67",
"O&	c #466212",
"P&	c #446714",
"Q&	c #4A7515",
"R&	c #456112",
"S&	c #4B7516",
"T&	c #406213",
"U&	c #406413",
"V&	c #507034",
"W&	c #D3D7D1",
"X&	c #C6B0AF",
"Y&	c #A24D51",
"Z&	c #A14E50",
"`&	c #8F4442",
" *	c #A35857",
".*	c #DDC8C7",
"+*	c #718A62",
"@*	c #4A6C14",
"#*	c #405C11",
"$*	c #4A7916",
"%*	c #456C16",
"&*	c #4B7816",
"**	c #456111",
"=*	c #476C13",
"-*	c #517531",
";*	c #DADDD9",
">*	c #8B8079",
",*	c #74393B",
"'*	c #793A3E",
")*	c #632C2D",
"!*	c #774041",
"~*	c #AEA4A6",
"{*	c #6E855D",
"]*	c #497617",
"^*	c #3F6912",
"/*	c #4A7015",
"(*	c #487416",
"_*	c #416B13",
":*	c #446313",
"<*	c #486423",
"[*	c #C0C4BD",
"}*	c #3A3E37",
"|*	c #271B1B",
"1*	c #312628",
"2*	c #322E2E",
"3*	c #352E2F",
"4*	c #6C6B6A",
"5*	c #698257",
"6*	c #436611",
"7*	c #496D14",
"8*	c #3D5D11",
"9*	c #466D16",
"0*	c #456A15",
"a*	c #486D13",
"b*	c #446919",
"c*	c #B8BEB5",
"d*	c #484E48",
"e*	c #1D1B1C",
"f*	c #1F1D1F",
"g*	c #202222",
"h*	c #202021",
"i*	c #878786",
"j*	c #637A51",
"k*	c #466B15",
"l*	c #415E11",
"m*	c #4C7215",
"n*	c #497716",
"o*	c #416B14",
"p*	c #466913",
"q*	c #CBCEC8",
"r*	c #4D504B",
"s*	c #222222",
"t*	c #232325",
"u*	c #878787",
"v*	c #5F794A",
"w*	c #3F6213",
"x*	c #457217",
"y*	c #477417",
"z*	c #416112",
"A*	c #476D15",
"B*	c #3B5E11",
"C*	c #446211",
"D*	c #C1C6BD",
"E*	c #4E524B",
"F*	c #232323",
"G*	c #242426",
"H*	c #818181",
"I*	c #5D8142",
"J*	c #477016",
"K*	c #497114",
"L*	c #406613",
"M*	c #426F15",
"N*	c #3E6213",
"O*	c #3D5F11",
"P*	c #3F5E11",
"Q*	c #9EA897",
"R*	c #7E8779",
"S*	c #828681",
"T*	c #80827F",
"U*	c #7A7D79",
"V*	c #737671",
"W*	c #929491",
"X*	c #547138",
"Y*	c #467116",
"Z*	c #3E580F",
"`*	c #446F15",
" =	c #406C14",
".=	c #446811",
"+=	c #486F16",
"  . + @ # $ % & * = - ; > , ' ) ! ~ { > ] ^ / ( _ : < [ } | 1 2 3 < 4 5 6 7 8 9 ",
"0 a b c d e ] f g h i j k ) l m n o p q r s t u v w b x y z A { j * B 9 C D E F ",
"* 4 G H I J B K L M N M O P D Q R S T U V W X Y = Z `  ...+.@.#.$.%.&.*.=.-.#.;.",
">.,.'.).!.~.+.{.].0 ^./.(.# _.< :.<.[.}.|.1.2.A + 3.4.5.6.{ 7.8.9.0.a.b.c.d.e.f.",
"0.g.h.' < 7.i.j.k.{.l.m.n.b.o.p.q.r.s.t.u.v.w.).8.+ x.y.#.z.= - A.B.C.D.E.F.G.d.",
"%.%.5 ,.H.3 I.) J.K.J L.Q #.M.N.O.P.Q.R.S.T.U.B V.W.X.k.Y.Z.`. +.+++!.@.@+#+i.$+",
"%+&+(.*+=+-+;+0 w !.>+,+o.'+)+!+~+{+]+^+/+(+_+:+<+N [+,.}+M |+e.1+2+3+%.4+n.5+0.",
"6+7+8+9+!.0+a+J G.b+c+-+*.d+[+e+f+g+h+i+j+k+z.l+u g.%.m+;.n+#.o+d+d+p+q+r+~.k.l ",
"s+t+u+/.v+w+x+y+d.z+/.Q A+B+C+D+E+F+G+H+I+J+K+L+) M+}+N+~ + O+l 7.'+q+i !.P+Q+{ ",
"R+S+T+u U+0 {.#.;.V+_.W+X+) Y+Z+`+ @.@+@@@#@$@%@&@y *@J.3+M =@-@;@. >@9 ,@+.'@)@",
"!@~@{@]@^@+++ <+d.y /@{.(@_@:@<@[@}@|@1@2@3@4@5@6@( < 7@= 8@9@0@e.~ a@f b@!.c@1 ",
"-+d@'.J.e@.+{ ~.f@g@+ d.h@i@j@k@l@m@n@o@p@q@r@s@t@m.L.u@v@*+w@!.x@y@z@A@<+9+<+1 ",
"J.*.: G.h B@9 C@G.D@#.E@h F@G@H@I@J@K@L@M@N@O@P@Q@o+R@S@d.T@) n++.U@6.F@V@-+f.E ",
"W@X@>@Z Y@Z@`@'+8  #P+A J..#+#@###$#%#&#*#=#-#;#>#,#'#i )#!#8 &+/.b+)+~#{#]#(.^#",
"/#N y / (#) 0@$ _#k.7+b.)@s+:#<#[#}#|#1#2#3#4#5#6#8 [+P 7#^@. 8#-+d+n.9#_+4 0#-@",
")+a#^@6 b#)#c#)+0#9#!.d#e#n.f#g#h#i#j#k#l#m#n#o#p#q#e.9.' r#-@Q O s#t#~.u#0#{.v#",
"w#] 1 x#y#_@k ~@c 1 d#z#A#Z B#C#D#E#F#G#H#I#J#K#L#7#7+/@w+M+M#N#u@O#P#w+W+K.> Q#",
"> F R#S#T#B@x#4 { .+U#M V#W#X#Y#Z#`# $.$+$@$#$$$%$&$*$9@=$. -$;$f >$,$'$+ )$w !$",
"c T#9 ~$/.J {$8 x@Y@]$t#)$^$/$($_$:$<$[$}$|$1$2$3$) @ j.!.4$!+F@X+5$_.6$e.7$1 8$",
"0 ~.h 2 f 9$0$-$z.Q# +!.a$,.b$c$d$e$f$g$h$i$j$k$ +B@l$m$n$9 R#O o$_+`@h p$~ Q c ",
"q$7.]@y@4 u r$%.c )@u x k m$s$t$u$v$w$x$y$z$A$B$*+z#T@C$D$E$F$3 G$;.t#(.H$I -+4 ",
"K.& I$d.J$9 b+%.W@d+K$`@M i.L$M$N$O$P$Q$R$S$T$U$*.V$*.1+w @.W$& X$i Y$9 Z$9@`$7+",
"@.[+ %, h@ #=@t#V@K.1 H$.%+%@%#%$%%%P$&%*%=%-%;%1 >%,.w+'$g@,%b#'%{ )%c `@]$)$!%",
"+ d+~%>@{%c#]%^%/%++H.~#A#(%_%#%:%<%[%}%|%1%2%3%4%5%b Q 8 u+C$6%9 7%=$Q <+9 8%M+",
"y@]@n+)#n++.~#y+8$~.x+9%0%/%a%b%c%d%e%f%e%g%h%i%p$# /.# ++O## k.j%)+x@5 c#1 k%F.",
"d+l%i m%n%g o%~$Q#K.p%++q%r%s%t%u%v%w%x%y%z%A%B%n%`$&+C%#.i >@>@'$D%h E%F%S@7+G%",
"H%q%@ q%U+P+{@I >@!%w c z.Y.I%J%K%L%M%N%O%P%Q%R%!+~ `@f.y@S%T%Y.U%6$V%W%8%;+M !.",
"X%0 >@k Y%~ T+Z%`% &3 4 B@z..&+&@&#&$&%&&&*&=&-&;&L.m.3 s+>&[+[+++z#J.Y@)@^.,&!%",
"h c i x z.p$-+n+ +@.9@ &'&)&!&~&{&]&^&/&(&_&:&<&K.[&}&D$8#;.9 ,$X%|&i.R#1&2&I B ",
"G.n.3&j.t+s+d.w+J. #].q$0.a 4&5&6&7&8&9&0&a&b&c&d&e.e&f&D%' M k . A@g&h&i i&+.j&",
"k&l&U#m&z@n& &+ o&C%;.M+u P+p&q&r&s&t&u&v&w&x&U@y#y& #d.O z&A&^@Q u B&W+R#q%.+T@",
",$4 %+C&D&'%9 E&= h u N <+{ F&G&H&I&J&K&L&M&N&%+- O&y+~#0 P&A Q&) . d.; * W+R&S&",
"d+T&{ e.e.*$>%8#V#U&v#].l&A&V&W&X&Y&Z&`& *.*+*&+: ]%S@@*+ . @ *.k p.3+#*9#X%{ $*",
"%*k.].o&&***=*++-$e&- ] D$! -*;*>*,*'*)*!*~*{*R+]*M 7%f.^*q$u C@n.n+W$,@J /*p$(*",
"c ;.{  #5%,#9 n._*}&:*9.!.d.<*[*}*|*1*2*3*4*5*z#5$* { ) 6*<+M 7$'+c#*$7*n.s+#.& ",
"# 2 ) u#h&8*Q#t#I !$9*I 0*a*b*c*d*e*f*g*h*i*j*U&B ~#:+k*l*=@1 3.] m*K.^@+ n*o*^%",
"7#O#j.~.X.~.e.1+x+`@8 f.@+e#p*q*r*s*t*t*t*u*v*m$(*F%u w*M ~./.^%e#[+z.P+o&9.x*-+",
"u@y*J ) z*' `@-+-+A*B*!.C* &!.D*E*F*t*t*G*H*I*1+z {@J*K*1 m++.L*n+*.w+M*N*V%,#O*",
"/.X%p$^.~ 8@4 &.;.P*H.z.y&W@~ Q*R*S*T*U*V*W*X*%.X%$*[ X+d+7$F.@.d++.n&Y*F%U#}&Z*",
"1 >@K '#8$7 . z&B@`@[ `@`*>%x#C$R+J. +M P+u y@#.0 '#i.p+k&i V@J$ =.=n&+=^.%.N+@."};
