/* XPM */
static char * wall_texture_xpm[] = {
"40 40 494 2",
"  	c #D4CEC2",
". 	c #C1BBAF",
"+ 	c #D5CFC3",
"@ 	c #D5D1C5",
"# 	c #C3BFB3",
"$ 	c #D2CDC1",
"% 	c #C3BDB2",
"& 	c #C5BFB3",
"* 	c #CBC6BA",
"= 	c #CCC8BC",
"- 	c #C7C3B7",
"; 	c #CAC4B8",
"> 	c #D1CBBF",
", 	c #CFC9BD",
"' 	c #CBC7BB",
") 	c #BBB7AC",
"! 	c #CAC6BB",
"~ 	c #C6C2B7",
"{ 	c #C5C1B6",
"] 	c #C0BBA9",
"^ 	c #C9C4B1",
"/ 	c #D2CCBC",
"( 	c #C6BFB7",
"_ 	c #D0C9C0",
": 	c #C7C2B8",
"< 	c #CECABE",
"[ 	c #C8C3B7",
"} 	c #B5AFA4",
"| 	c #D2CCC0",
"1 	c #BCB6A9",
"2 	c #CBC5B8",
"3 	c #CDC6BD",
"4 	c #C2BEB4",
"5 	c #BCB8AF",
"6 	c #CCC8BE",
"7 	c #CBC8B9",
"8 	c #C0BDAE",
"9 	c #C5C2B2",
"0 	c #C4BEB3",
"a 	c #C4BEB2",
"b 	c #CFCABE",
"c 	c #C2BEB3",
"d 	c #C0BAAE",
"e 	c #C7C1B5",
"f 	c #CDCABE",
"g 	c #C5C1B5",
"h 	c #B6B1A5",
"i 	c #DAD5C9",
"j 	c #C9C4B8",
"k 	c #C8C3B8",
"l 	c #B8B4A9",
"m 	c #B1ADA3",
"n 	c #DAD6CB",
"o 	c #BCB9AE",
"p 	c #C4BFAD",
"q 	c #C8C3B0",
"r 	c #C3BDAC",
"s 	c #D3CCC1",
"t 	c #C8C2B6",
"u 	c #C1BEB2",
"v 	c #CDC9BD",
"w 	c #C1BCB0",
"x 	c #C2BCB1",
"y 	c #BCB6A8",
"z 	c #BFB9AC",
"A 	c #D3CCC3",
"B 	c #B7B3A7",
"C 	c #D3CFC3",
"D 	c #D0CCC0",
"E 	c #C6C2B6",
"F 	c #CEC8BC",
"G 	c #D2CEC2",
"H 	c #C4C0B3",
"I 	c #C6C1B5",
"J 	c #CCC6BA",
"K 	c #CBC5B9",
"L 	c #CAC5B9",
"M 	c #C4C0B4",
"N 	c #CCC7BB",
"O 	c #D2CDC2",
"P 	c #BFBAAF",
"Q 	c #D4D0C5",
"R 	c #C0BCB1",
"S 	c #BDB8A7",
"T 	c #BFBBAA",
"U 	c #C5C0AF",
"V 	c #CCC6B7",
"W 	c #CBC5B6",
"X 	c #BFBAAD",
"Y 	c #BDB9AD",
"Z 	c #BAB4A9",
"` 	c #C8C2B4",
" .	c #BDB7AB",
"..	c #C9C2B8",
"+.	c #B2AEA0",
"@.	c #C8C5B5",
"#.	c #BEBAAC",
"$.	c #CECAC0",
"%.	c #C4C0B6",
"&.	c #C6C0B0",
"*.	c #D7D1C6",
"=.	c #C4BFAE",
"-.	c #D4CEC0",
";.	c #C8C2B0",
">.	c #D1CBC0",
",.	c #CDC8BC",
"'.	c #CAC6BA",
").	c #C9C5B9",
"!.	c #CFC9BE",
"~.	c #C6C0B4",
"{.	c #C3BDB1",
"].	c #CDC9BE",
"^.	c #C4C0B5",
"/.	c #C8C4B8",
"(.	c #C0BCB0",
"_.	c #C5BFB4",
":.	c #C2BCB0",
"<.	c #B8B2A6",
"[.	c #CDC7BB",
"}.	c #BFB9AD",
"|.	c #CDC8B7",
"1.	c #CBC5BA",
"2.	c #C2BCAD",
"3.	c #D1CBBD",
"4.	c #C1BCAA",
"5.	c #D0CABE",
"6.	c #CAC4B9",
"7.	c #C7C2B6",
"8.	c #BCB8AD",
"9.	c #CEC9BD",
"0.	c #D1CCC0",
"a.	c #C9C3B7",
"b.	c #C1BDB2",
"c.	c #BEB8AC",
"d.	c #B6B0A4",
"e.	c #C4BFB0",
"f.	c #CAC3B8",
"g.	c #CFC9BA",
"h.	c #C7C1B4",
"i.	c #B6B0A0",
"j.	c #C9C3B8",
"k.	c #C5C0B5",
"l.	c #D0CCC1",
"m.	c #D1CCC1",
"n.	c #C2BBB0",
"o.	c #C5C0B4",
"p.	c #CBC7BC",
"q.	c #CCC8BD",
"r.	c #BFBBAE",
"s.	c #CFCCC0",
"t.	c #BCB7AB",
"u.	c #C2BDB1",
"v.	c #CCC6BB",
"w.	c #C4BFB3",
"x.	c #C2BCB2",
"y.	c #D7D1C5",
"z.	c #C7C3B8",
"A.	c #CECABF",
"B.	c #C5BFB5",
"C.	c #C7C0B6",
"D.	c #C3BCB2",
"E.	c #C0BBB1",
"F.	c #BFBBB0",
"G.	c #CFCBC0",
"H.	c #C8C4B7",
"I.	c #BFBCAD",
"J.	c #CDC9BF",
"K.	c #CFCBC1",
"L.	c #C8C4B6",
"M.	c #C7C3B6",
"N.	c #B4AEA3",
"O.	c #CECBC0",
"P.	c #CCC7BC",
"Q.	c #B7B0A6",
"R.	c #CDC8BD",
"S.	c #BEBAAF",
"T.	c #C8C5B8",
"U.	c #B9B6A7",
"V.	c #D1CDC4",
"W.	c #C9C5BA",
"X.	c #C8C4BA",
"Y.	c #BCB8AB",
"Z.	c #D0CDC0",
"`.	c #C0BDB2",
" +	c #BDB9AE",
".+	c #C8C4B9",
"++	c #D2CEC3",
"@+	c #BAB6AB",
"#+	c #C6C0B6",
"$+	c #D2CCC2",
"%+	c #C0BAB0",
"&+	c #BBB6AA",
"*+	c #D0CABF",
"=+	c #B9B4A8",
"-+	c #C0BBB0",
";+	c #CBC6BC",
">+	c #CFC9BF",
",+	c #CAC4BA",
"'+	c #C0B9AF",
")+	c #CAC3B9",
"!+	c #CBC6BB",
"~+	c #BEB9AE",
"{+	c #C0BCAF",
"]+	c #BCB7AC",
"^+	c #C3BEB3",
"/+	c #C9C4B7",
"(+	c #BFBAAE",
"_+	c #C6C1B6",
":+	c #CCC6B8",
"<+	c #BEB8AA",
"[+	c #C8C1B8",
"}+	c #CCC6BC",
"|+	c #D1CAC0",
"1+	c #C1BAB0",
"2+	c #D0C9BF",
"3+	c #BCB5AB",
"4+	c #C9C4B9",
"5+	c #D6D2C7",
"6+	c #C3BFB4",
"7+	c #D3CDC1",
"8+	c #C8C3B6",
"9+	c #C4BEB1",
"0+	c #C4C1B5",
"a+	c #C6C0B2",
"b+	c #C9C3B6",
"c+	c #C8C2B7",
"d+	c #C6BFB4",
"e+	c #D1CBC1",
"f+	c #BBB4AA",
"g+	c #BEB7AD",
"h+	c #D3CFC4",
"i+	c #C4C1B6",
"j+	c #C0BAAF",
"k+	c #C4BFB4",
"l+	c #C6C3B7",
"m+	c #BCB8AC",
"n+	c #C4BDB3",
"o+	c #BEB7AE",
"p+	c #C4BDB4",
"q+	c #B3AFA3",
"r+	c #BAB4A8",
"s+	c #C3BDB3",
"t+	c #CAC5BB",
"u+	c #D0CBC1",
"v+	c #BBB5AB",
"w+	c #BFB9AE",
"x+	c #C1BCAF",
"y+	c #C5C0B3",
"z+	c #C2BCAF",
"A+	c #CDC8BE",
"B+	c #C2BDB3",
"C+	c #C6C1B7",
"D+	c #B6B2A7",
"E+	c #BCB6AA",
"F+	c #CAC5BA",
"G+	c #B8B3A8",
"H+	c #C2BEB2",
"I+	c #BFBAB1",
"J+	c #CCC7BD",
"K+	c #C7C1B6",
"L+	c #C7C2B7",
"M+	c #D9D3C7",
"N+	c #D3CEC2",
"O+	c #BBB7AD",
"P+	c #CFCBBF",
"Q+	c #BBB5AA",
"R+	c #B7B3A8",
"S+	c #C9C5BB",
"T+	c #C8C5B6",
"U+	c #C7C4B5",
"V+	c #C6C1B4",
"W+	c #CBC4BB",
"X+	c #C2BEB0",
"Y+	c #CAC7B8",
"Z+	c #CBC8BA",
"`+	c #C3BFB5",
" @	c #CAC6BC",
".@	c #B9B2A9",
"+@	c #D2CBC2",
"@@	c #BFBBAF",
"#@	c #C7C1B8",
"$@	c #C6C0B3",
"%@	c #B9B5AA",
"&@	c #C5C2B7",
"*@	c #CEC7BE",
"=@	c #BEB8AB",
"-@	c #BCB8AE",
";@	c #CEC7BD",
">@	c #CBC5BB",
",@	c #C3BCB3",
"'@	c #C5C1B7",
")@	c #C4BEB5",
"!@	c #BCB5AD",
"~@	c #D1CBC2",
"{@	c #C9C5BC",
"]@	c #C6C2B8",
"^@	c #C7C3BA",
"/@	c #CBC6BE",
"(@	c #C2BFB0",
"_@	c #D0CCBD",
":@	c #C4C0B2",
"<@	c #C7C2B5",
"[@	c #CEC9BB",
"}@	c #BFBBB2",
"|@	c #C3BFB6",
"1@	c #BEBAB1",
"2@	c #BEBBB0",
"3@	c #B5B1A6",
"4@	c #CDCABF",
"5@	c #C9C2B7",
"6@	c #C1BEB1",
"7@	c #C3BEB4",
"8@	c #BBB8A9",
"9@	c #D0CABD",
"0@	c #CCC7B9",
"a@	c #C7C3B5",
"b@	c #D0CCC2",
"c@	c #B2AEA3",
"d@	c #C8C3B5",
"e@	c #C8C2B5",
"f@	c #C1BCAE",
"g@	c #C5C2B3",
"h@	c #C9C6B7",
"i@	c #C4C1B1",
"j@	c #C6C3B3",
"k@	c #C6C1B8",
"l@	c #CEC8BD",
"m@	c #AEA99F",
"n@	c #BDB9AB",
"o@	c #D1CCBF",
"p@	c #CBC6B9",
"q@	c #C5C2B4",
"r@	c #CFCCBC",
"s@	c #B5B2A3",
"t@	c #C4C1B2",
"u@	c #C6C3B6",
"v@	c #B7B4A9",
"w@	c #BAB5A9",
"x@	c #B9B3A7",
"y@	c #BDB7AD",
"z@	c #C6BFB5",
"A@	c #B6B2A8",
"B@	c #C7C3B9",
"C@	c #C0BCB2",
"D@	c #B8B2A8",
"E@	c #BCB7A9",
"F@	c #C2BFB1",
"G@	c #B7B3A9",
"H@	c #C2BEB7",
"I@	c #BDB8B3",
"J@	c #C7C2BD",
"K@	c #B4B0A6",
"L@	c #B1ADA1",
"M@	c #C1BCB1",
"N@	c #BFBAB0",
"O@	c #C3BEB2",
"P@	c #CBC4BA",
"Q@	c #BDB6AC",
"R@	c #CEC9BF",
"S@	c #C0BCAE",
"T@	c #B3AEA3",
"U@	c #B9B4AA",
"V@	c #C5C0B6",
"W@	c #C3BDAF",
"X@	c #C5BEB4",
"Y@	c #C1BCB2",
"Z@	c #BDB6AD",
"`@	c #C6BFB6",
" #	c #CFC8BE",
".#	c #BCB9A9",
"+#	c #C8C3BA",
"@#	c #D2CBC1",
"##	c #BFB9AF",
"$#	c #C2BBB1",
"%#	c #BBB7AB",
"&#	c #C3C0B6",
"*#	c #CAC3BA",
"=#	c #C1BBB0",
"-#	c #CFC8BF",
";#	c #CCC5BB",
">#	c #B6B2A6",
",#	c #CDC8BB",
"'#	c #CAC4BB",
")#	c #CCC5BA",
"!#	c #CEC9BE",
"~#	c #B3AFA4",
"{#	c #C9C2BB",
"]#	c #D3CCC5",
"^#	c #CAC3BC",
"/#	c #CEC8BF",
"(#	c #CECAC1",
"_#	c #B5B1A5",
":#	c #C8C1B6",
"<#	c #AFA89E",
"[#	c #BEB8AD",
"}#	c #C5BFB6",
"|#	c #C2BDB4",
"1#	c #D7D2C7",
"2#	c #CEC7BC",
"3#	c #C8C1B7",
"4#	c #BBB6AB",
"5#	c #C5BEB3",
"6#	c #B8B1A8",
"7#	c #BAB7AC",
"8#	c #D1CDC2",
"9#	c #B3ACA2",
"0#	c #C9C3B5",
"a#	c #C0BBAB",
"b#	c #C4BFAF",
"c#	c #CDC7BC",
"d#	c #BBB5A9",
"e#	c #B4AEA1",
"f#	c #C9C3B9",
"g#	c #B5B0A5",
"h#	c #D3CEC5",
"i#	c #C8C2B9",
"j#	c #C1BBB1",
"k#	c #BEB8AE",
"l#	c #B8B1A7",
"m#	c #CDC6BC",
"n#	c #BFB8AE",
"o#	c #C8C3B9",
"p#	c #BDB9AC",
"q#	c #C1BAB1",
"r#	c #C7C0B7",
"s#	c #D3CDC3",
"t#	c #D1CCC2",
"u#	c #BEB9AF",
"v#	c #BFBBB1",
"w#	c #BEBAB0",
"x#	c #D5CEC4",
"y#	c #C4BEB4",
"z#	c #BAB4AA",
"A#	c #D8D1C7",
"B#	c #C0BDAF",
"C#	c #BCB9AB",
"D#	c #BBB4AB",
"E#	c #CCC5BC",
"F#	c #B6AFA5",
"G#	c #B5AFA5",
"H#	c #BBB8AA",
"I#	c #C4C1B3",
"J#	c #C4BFB5",
"K#	c #CEC8BE",
"L#	c #C0BBAF",
"M#	c #B9B2A8",
"N#	c #C7C1B7",
"O#	c #ACA59B",
"P#	c #D3CDC0",
"Q#	c #C6C3B8",
"R#	c #BAB6AC",
"S#	c #D9D5CA",
"T#	c #AAA69C",
"U#	c #B2ABA1",
"V#	c #B3ACA3",
"W#	c #BAB3A9",
"X#	c #CBC5B7",
"Y#	c #D0C9C1",
"Z#	c #D3CCC2",
"`#	c #D1CAC1",
" $	c #BAB5AB",
".$	c #C8C2B8",
"+$	c #C4BDB2",
"@$	c #C1BDB3",
"#$	c #BFB9AA",
"$$	c #CFC8BD",
"%$	c #CEC7BF",
"&$	c #AEA79E",
"*$	c #C1BBAD",
"=$	c #CDC6BB",
"-$	c #D2CBC0",
";$	c #C8C1B9",
">$	c #B6B0A6",
",$	c #AFAB9F",
"'$	c #C2BDB7",
")$	c #BDB7AC",
"!$	c #BCB5AC",
"~$	c #C0B9B0",
"{$	c #BAB3AB",
"]$	c #CDC6BE",
"^$	c #BFB8AF",
"/$	c #D7D0C6",
"($	c #D4CDC3",
"_$	c #D0CAC0",
":$	c #CBC7BE",
"<$	c #BBB7B0",
"[$	c #B4AEA2",
"}$	c #BFB8AD",
"|$	c #BCB6AC",
"1$	c #C9C2B9",
"2$	c #C5C0BA",
"3$	c #C6C1BB",
"4$	c #D4CFC7",
"5$	c #C1BDB1",
"  . + @ # $ % & * = - ; > , ' ) ! ~ { ' ] ^ / ( _ : = < [ } | 1 2 3 4 5 6 7 8 9 ",
"0 a b ' c = d e * f g h i j k l m n o c p q r s t * u v w x t y z A B C D E g # ",
"t F , G H I J K L E M N , N O = P Q R v S T U V W X Y v J Z x `  ...+.@.#.$.%.c ",
"&.*.=.-.;.>.| a ,.'.).e !.K ~.a {.~ ].^./.(.).{.K , & & L _.d :.<.F ; a , :.[.}.",
"|.1.2.3.4.s 5.6.7.u 8.9., 0.a.K K { ! b./.g < x | K c.a. .F ~.{.d.J a t F . K ; ",
"e.f.g.h.i.j.F !.k.l.(.m.n.J ,.o.9.'.p.q.r.s.^.t.j.9.u.[.t.v.j h j w.. {.~.0.w x.",
"y.K J J J j.D z.c A.{ B.C.D.E.F.G.' g H.I.p.J.q.{ 4 K.L.M.{ R c ].F.N.a. .p.F.~ ",
"K , t a > N = E E O.z.P.Q.D.R.S.A.M E T.U.q.V.W.c X.K.Y.Z.`.8. +! .+J > _.++@+S.",
"#+$+%+&+*+t =+-+,.;+>+,+'+)+!+{ K.~+o.w.{+.+: ]+k.!+^+/+(+-+_+'.c c X :+<+].^.z.",
"[+_ '+,.6.; ~.a.!.}+|+1+2+3+4+5+6+w.a.7.{ q.6+K 7+t t d ~.e I M (.'.8+9+9+0+E - ",
"a+b+b+a.. {.c+t d+e+)+f+}+g+A.h+i+0.a.w z.6+G.d 7+c.F j+. ; . k+l+m+n+o+p+g E I ",
"I 0.q+| b r+a   s+t+u+v+w+j.x+y+z+A+B+C+D+q.P.; ; t E+j.L F+G+H+! b.E.I+J+K+=+L+",
"! h+R 7+M+}.~.K N+~ ~ j.w.a.~.:.a .+W.].O+~ P+& !.Q+a ,._+z.R c c A.) R+z.E+}.j ",
"G.S+!+5.e J a a.y+T+U+V+{.a.3 W+W+X+Y+Z+z.^.z.d.J e d d I R ) { l.{ `+F.8.t e 5.",
" @c ++l.G._+k+R./.f = k..+W....@+@D /.@@#@[ $@_+C W.k+F.k+p.%@q.q.{ ~ ! F.6+~+{ ",
"A.! q.p.q.6+! ++c ^.&@~ ~ A...|+1+].z.S.*@~.=@l.q.c b.%.z.@+c .+! 8..+R 6+S.%.{ ",
"~ A.~ ].6+6+W.z.q.b..+-@~ ~ ,+;@>@l ! ;+,@ .$@W.W..+{ '@6+{ S.J.l.%@S.~ W.) z.`+",
")@!@~@{@]@^@/@(@_@[ J J+! :@<@J a.~ ^.p.K c.[@8 z.{@}@|@}@}@1@2@! .+3@4@c E M ' ",
"K+5@!.v /.6@m+M 9.0 a.7@W.8@9@{.e {  +b.7. .0@a@z.b@%@'.(.< b.%@F.-@~ c 6+H+c@[.",
"d@e@f@g@h@i@j@ @k@l@; m@z.n@o@t [.F+c L+<., p@q@L+l+r@s@8@g@t@u@i+ +{ F.~ /.].).",
"R W.h+~ ! ++~ v@z.~ F. +l A.w@x@F C.y@z@A.~ (. .a y+Z+! O+^.z.A@R R ~ q.F.6+) B@",
"W.z.{ A.].C@p.S+].~ { %.-@G.b r+5.;@D@;@G.6+^+e [.E@F@A.G@q.z.H@I@J@K@p.'@6+^.L@",
"6+! F.^+q.].M@q.b.R ]@N@t+7@O@c+, P@Q@2+~ R@]+$@6.o.S@T@U@V@ +k.).w { .+z.@+.+^.",
"! ].R W@X@[+x :.O ].6+Y@..P@Z@`@X@Q@ #|+3+2+j+.#S.+#t d.X@@###$#X@X@@@%#g @+p.&#",
"p..+S.a+@#*#[.7+* l S.=#p+-#z@x.;#Q@1+|+X@C.n+.+Y./+v.. j.)+3+n+n+g+>#- @@8.J.A@",
"! S+{ ,#x.'#Q+)#!#~#c ##D.f+{#]#^#g+g+}+'+C./#(#_#:@5.{.:#@# #<#6.[#k g I }#|#w+",
" @F.! h+ +4+n+D.1# +! #+D.g+B.2#*+..;#C.3#3#3#! ! 4#}.w+5#}+z@)#}.:.[.J  ._ 6#X@",
"! 7# +q.8#C+1+v+P.c ! ,+9#C.0#a#b#n.`@,+n+)+j.~ R @@~., c#$#|+}.d# .[ ; u.$@h.e#",
"V@f#!#s+g#V@7@h#i#j#N@k#l#f#|+x ;#P k+: X@z@m#8.S.;+'+c+$#..n#c+d+'+!+C+o#p#u.u.",
"q#;#W+X@m###z.6+f#r#n+)+3#p+..n+s#q.R 6+X@g+|+F.{ t#D.$#$#,@;#1+z@z@u#W.v#].w#X.",
")+x#y#z#A#x B#C#j ;#f+D#E#..|+3#1+z.^.q.f+$#s#b.o k F#G#)+P@;#X@g+z@F@H#I#~  @O+",
"J#t#: 3#K#v.> L#%  #Q.P@|+M#f#1+r#[#K+c+r#;@N#%.&@J#3#P@%+D.3#n#O#M#P#$@/+@+Q#R#",
" +S#p.D.D.#+3#P@n+C.C.C.B.>@n+n+;#g+ #D.D.D.K+A.c }+$#q#)+'+3#o+n#D@d ; e ! T#F.",
"c G.!+>@U#2+P@z@1+)+D.;@#+3+W+P@X@X@)+C.D...m#A.6+U@1+Q@'+2+f+V#n+W#0 c.:.]@R+F.",
"X#0 Y#'+)+Z#3#`# $J#c .$;#C.$#B.1+a++$A 1+;#X@>+y#z@n+$#!+c F+%+}+..##D.)+b.~ @$",
"#$$$%$&$`@>@C.1+y#^.c ,+D.[+z@C.z@*$=$*@#+ #W#)+z@g+j#Q@o#8.~ y@z@Q.-#g+l#6+^.R ",
"V Z#Y#'+f+#+C.q#B..+J..$Z@*@C.3#D.*$-$;$M#;#;@W#g+X@)+C.]+6+v#B.2+)+n+n+g+b.8#~+",
";#Z#n+,@3#'+D.X@D.P@X@$# #n+,+3#>$;@ #f#W.,$$.'$R { .+~ R z.) )$m#!$n+~$v+{$]$^$",
"B.;@q#)+g+f+..;#X@Q@/$$#X@)+($3+[+)+n#_$V.{@:$<$z.Y S#F.X.R 6+j#$#3#Q@'+$#[$f.}$",
"`#*+5#..|$c.)+X@p+G#}+3 3#'#)+X@##C.@#1$2$H@3$4$u#5$R.^.D+{ { w+_.,+n+Q.$#9+<+}."};
